G04 Generated by Ultiboard 14.3 *
%FSLAX34Y34*%
%MOMM*%

%ADD10C,0.0001*%
%ADD11C,0.1270*%
%ADD12C,0.1556*%
%ADD13C,0.2032*%


G04 ColorRGB FFFF00 for the following layer *
%LNsilkscreen top*%
%LPD*%
G54D10*
G54D11*
X53610Y-41402D02*
X33607Y-41402D01*
X31585Y-40879D02*
X30753Y-40272D01*
X30052Y-39477D01*
X29491Y-38526D01*
X33607Y-41402D02*
X32540Y-41266D01*
X31585Y-40879D01*
X53610Y-36613D02*
X53610Y-41402D01*
X53610Y-33068D02*
X34666Y-33068D01*
X34666Y-36613D02*
X53610Y-36613D01*
X53597Y-24918D02*
X34666Y-24918D01*
X34666Y-28464D02*
X53610Y-28464D01*
X33594Y-20130D02*
X53597Y-20130D01*
X31580Y-20653D02*
X32531Y-20266D01*
X33594Y-20130D01*
X30050Y-22054D02*
X30750Y-21260D01*
X31580Y-20653D01*
X34666Y-33068D02*
X34099Y-33177D01*
X33627Y-33507D01*
X33304Y-34061D01*
X33184Y-34840D01*
X33304Y-35614D01*
X33627Y-36168D01*
X34099Y-36502D01*
X34666Y-36613D01*
X29491Y-38526D02*
X29079Y-37451D01*
X28826Y-36282D01*
X28739Y-35052D01*
X28875Y-33865D01*
X29252Y-32720D01*
X29822Y-31670D01*
X30538Y-30766D01*
X29822Y-29860D01*
X29252Y-28806D01*
X28875Y-27661D01*
X28739Y-26480D01*
X28826Y-25250D01*
X29079Y-24081D01*
X29490Y-23005D01*
X30050Y-22054D01*
X34666Y-24918D02*
X34099Y-25028D01*
X33627Y-25358D01*
X33304Y-25912D01*
X33184Y-26691D01*
X33304Y-27470D01*
X33627Y-28024D01*
X34099Y-28354D01*
X34666Y-28464D01*
X53597Y-20130D02*
X53597Y-24918D01*
X53610Y-28464D02*
X53610Y-33068D01*
X35036Y-19032D02*
X44297Y-19032D01*
X44297Y-14388D02*
X35036Y-14388D01*
X43979Y4979D02*
X34031Y4979D01*
X33382Y561D02*
X43979Y561D01*
X36919Y-8455D02*
X37560Y-8278D01*
X38135Y-7986D01*
X38744Y-13068D02*
X37955Y-13297D01*
X37115Y-13440D01*
X36227Y-13488D01*
X28907Y18953D02*
X28707Y19764D01*
X36319Y18420D02*
X37150Y18460D01*
X37868Y18584D01*
X38473Y18802D01*
X39234Y14761D02*
X37823Y14467D01*
X36319Y14372D01*
X28707Y19764D02*
X28583Y20653D01*
X32628Y20816D02*
X32820Y20117D01*
X33134Y19555D01*
X33563Y19118D01*
X36227Y-8514D02*
X36919Y-8455D01*
X32287Y-835D02*
X32554Y-1192D01*
X32818Y-1860D01*
X32867Y-2164D01*
X28541Y-2164D02*
X28589Y-1860D01*
X28838Y-1192D01*
X29096Y-835D01*
X32867Y-2164D02*
X32867Y-4837D01*
X32933Y-5686D01*
X33124Y-6427D01*
X33427Y-7058D01*
X33832Y-7578D01*
X34326Y-7986D01*
X34898Y-8278D01*
X35535Y-8455D01*
X36227Y-8514D01*
X36227Y-13488D02*
X35343Y-13440D01*
X34506Y-13297D01*
X33719Y-13068D01*
X32983Y-12757D01*
X32299Y-12372D01*
X31667Y-11918D01*
X31090Y-11402D01*
X30568Y-10831D01*
X29696Y-9546D01*
X29061Y-8114D01*
X28672Y-6585D01*
X28541Y-5009D01*
X28541Y-2164D01*
X33290Y-16690D02*
X33246Y-16195D01*
X33119Y-15737D01*
X32915Y-15325D01*
X32643Y-14968D01*
X32310Y-14676D01*
X31923Y-14456D01*
X31488Y-14317D01*
X31014Y-14269D01*
X30544Y-14317D01*
X30112Y-14456D01*
X29725Y-14676D01*
X29391Y-14968D01*
X29117Y-15325D01*
X28912Y-15737D01*
X28784Y-16195D01*
X28739Y-16690D01*
X28783Y-17181D01*
X28910Y-17637D01*
X29114Y-18049D01*
X29386Y-18406D01*
X29719Y-18701D01*
X30106Y-18922D01*
X30541Y-19062D01*
X31014Y-19111D01*
X31484Y-19063D01*
X31917Y-18924D01*
X32304Y-18704D01*
X32638Y-18411D01*
X32912Y-18055D01*
X33117Y-17643D01*
X33245Y-17185D01*
X33290Y-16690D01*
X33766Y-16571D02*
X33821Y-17224D01*
X33965Y-17759D01*
X34168Y-18187D01*
X34401Y-18516D01*
X34838Y-18915D01*
X35036Y-19032D01*
X35036Y-14388D02*
X34832Y-14485D01*
X34396Y-14830D01*
X34164Y-15119D01*
X33963Y-15499D01*
X33820Y-15980D01*
X33766Y-16571D01*
X29519Y17554D02*
X29179Y18217D01*
X28907Y18953D01*
X33563Y19118D02*
X34102Y18797D01*
X34744Y18581D01*
X35486Y18459D01*
X36319Y18420D01*
X30684Y-220D02*
X31374Y-303D01*
X31901Y-524D01*
X32287Y-835D01*
X29096Y-835D02*
X29475Y-524D01*
X29996Y-303D01*
X30684Y-220D01*
X36319Y14372D02*
X34808Y14463D01*
X33374Y14748D01*
X32056Y15246D01*
X31452Y15582D01*
X30892Y15978D01*
X30380Y16437D01*
X29921Y16962D01*
X29519Y17554D01*
X34031Y4979D02*
X33750Y4999D01*
X33131Y5196D01*
X32801Y5426D01*
X32513Y5777D01*
X32309Y6277D01*
X32232Y6951D01*
X32268Y7556D01*
X32366Y8059D01*
X32661Y8781D01*
X32957Y9174D01*
X33091Y9292D01*
X34414Y9292D01*
X34590Y9384D01*
X34977Y9730D01*
X35183Y10032D01*
X35363Y10436D01*
X35491Y10957D01*
X35539Y11607D01*
X35492Y12251D01*
X35367Y12753D01*
X35191Y13132D01*
X34990Y13405D01*
X34612Y13696D01*
X34441Y13764D01*
X33039Y13764D01*
X32321Y13675D01*
X31586Y13455D01*
X30743Y13018D01*
X30315Y12695D01*
X29900Y12291D01*
X29513Y11797D01*
X29165Y11202D01*
X28872Y10498D01*
X28645Y9675D01*
X28500Y8725D01*
X28448Y7638D01*
X28503Y6375D01*
X28660Y5272D01*
X28903Y4318D01*
X29219Y3502D01*
X29592Y2814D01*
X30009Y2242D01*
X30455Y1777D01*
X30915Y1406D01*
X31821Y906D01*
X32611Y657D01*
X33382Y561D01*
X56203Y-17629D02*
X61190Y-19349D01*
X56907Y-7278D02*
X56957Y-8385D01*
X56880Y-10929D01*
X46850Y20643D02*
X49615Y14279D01*
X50078Y15086D02*
X47472Y22839D01*
X48371Y24955D02*
X50752Y15655D01*
X43742Y19791D02*
X43552Y18988D01*
X58387Y2112D02*
X57513Y2388D01*
X56494Y2426D01*
X55237Y5786D02*
X61468Y3577D01*
X43860Y20668D02*
X43742Y19791D01*
X38967Y19123D02*
X39349Y19556D01*
X39621Y20111D01*
X39784Y20797D01*
X56776Y-6382D02*
X56907Y-7278D01*
X56880Y-10929D02*
X56679Y-13396D01*
X52757Y-373D02*
X52336Y-1314D01*
X51697Y-3330D01*
X48667Y-4283D02*
X48601Y-1733D01*
X48645Y3037D01*
X45662Y-224D02*
X45796Y-4038D01*
X43128Y-835D02*
X43432Y-1192D01*
X43803Y-1860D01*
X43913Y-2164D01*
X42765Y-9546D02*
X41895Y-10831D01*
X41375Y-11402D01*
X40798Y-11918D01*
X51697Y-3330D02*
X51226Y-5322D01*
X50799Y-7045D01*
X50564Y-7728D01*
X50295Y-8252D01*
X49974Y-8586D01*
X49588Y-8700D01*
X49336Y-8537D01*
X49129Y-8091D01*
X48962Y-7402D01*
X48832Y-6510D01*
X48667Y-4283D01*
X45796Y-4038D02*
X45958Y-5974D01*
X46200Y-7847D01*
X46536Y-9598D01*
X46977Y-11164D01*
X47538Y-12484D01*
X47867Y-13033D01*
X48231Y-13498D01*
X48631Y-13871D01*
X49069Y-14144D01*
X49546Y-14310D01*
X50064Y-14362D01*
X50842Y-14250D01*
X51530Y-13959D01*
X52134Y-13513D01*
X52664Y-12938D01*
X53128Y-12262D01*
X53534Y-11509D01*
X54205Y-9880D01*
X55210Y-6857D01*
X55675Y-5880D01*
X55927Y-5617D01*
X56203Y-5538D01*
X56390Y-5607D01*
X56547Y-5777D01*
X56776Y-6382D01*
X56679Y-13396D02*
X56203Y-17629D01*
X43913Y-2164D02*
X43913Y-5009D01*
X43782Y-6585D01*
X43397Y-8114D01*
X42765Y-9546D01*
X44297Y-19032D02*
X44297Y-14388D01*
X40601Y-524D02*
X41066Y-303D01*
X41651Y-220D01*
X42245Y-303D01*
X43552Y18988D02*
X43292Y18257D01*
X42968Y17595D01*
X42141Y16475D02*
X41647Y16013D01*
X41106Y15612D01*
X40520Y15271D01*
X56494Y2426D02*
X55477Y2222D01*
X54611Y1810D01*
X53879Y1219D01*
X53266Y481D01*
X52757Y-373D01*
X48645Y3037D02*
X48715Y5204D01*
X45844Y6355D01*
X45694Y3105D01*
X45662Y-224D01*
X46228Y17084D02*
X45912Y13501D01*
X45839Y11419D01*
X45844Y9133D01*
X48609Y8154D01*
X48700Y9788D01*
X48845Y11127D01*
X49099Y12573D01*
X46228Y17084D01*
X49615Y14279D02*
X50078Y15086D01*
X50752Y15655D02*
X51295Y15788D01*
X51763Y15741D01*
X52192Y15603D01*
X52584Y15377D01*
X52941Y15066D01*
X53557Y14200D01*
X54056Y13029D01*
X54455Y11579D01*
X54770Y9872D01*
X55016Y7933D01*
X55211Y5786D01*
X55237Y5786D01*
X42245Y-303D02*
X42735Y-524D01*
X43128Y-835D01*
X42968Y17595D02*
X42583Y17002D01*
X42141Y16475D01*
X43979Y561D02*
X43979Y4979D01*
X39613Y-2164D02*
X39688Y-1860D01*
X39982Y-1192D01*
X40245Y-835D01*
X38135Y-7986D02*
X38634Y-7578D01*
X39044Y-7058D01*
X39352Y-6427D01*
X39546Y-5686D01*
X39613Y-4837D01*
X39613Y-2164D01*
X40798Y-11918D02*
X40167Y-12372D01*
X39482Y-12757D01*
X38744Y-13068D01*
X38473Y18802D02*
X38967Y19123D01*
X40245Y-835D02*
X40601Y-524D01*
X40520Y15271D02*
X39234Y14761D01*
X59746Y19211D02*
X59120Y21313D01*
X61180Y-2958D02*
X60951Y-1846D01*
X60641Y-804D01*
X61190Y-19349D02*
X61336Y-16326D01*
X61481Y-11001D01*
X61524Y-7542D01*
X61445Y-5279D01*
X61180Y-2958D01*
X60251Y17031D02*
X59746Y19211D01*
X60641Y-804D02*
X60242Y141D01*
X59740Y961D01*
X59125Y1627D01*
X58387Y2112D01*
X61468Y3577D02*
X61469Y4515D01*
X61402Y7015D01*
X61163Y10611D01*
X60946Y12672D01*
X60646Y14832D01*
X60251Y17031D01*
X36306Y28845D02*
X37810Y28754D01*
X39223Y28470D01*
X38491Y24396D02*
X37885Y24604D01*
X37162Y24720D01*
X36319Y24757D01*
X28541Y21622D02*
X28583Y22590D01*
X28707Y23478D01*
X28907Y24288D01*
X29179Y25022D01*
X29518Y25683D01*
X29920Y26273D01*
X30379Y26796D01*
X30890Y27252D01*
X31450Y27646D01*
X32053Y27979D01*
X33368Y28473D01*
X34799Y28755D01*
X36306Y28845D01*
X28583Y20653D02*
X28541Y21622D01*
X36319Y24757D02*
X35470Y24721D01*
X34722Y24604D01*
X34078Y24398D01*
X33543Y24092D01*
X33120Y23676D01*
X32813Y23138D01*
X32625Y22470D01*
X32562Y21661D01*
X32628Y20816D01*
X58359Y23278D02*
X57450Y25049D01*
X56936Y25843D01*
X56380Y26566D01*
X40511Y27972D02*
X41098Y27637D01*
X41641Y27242D01*
X42136Y26785D01*
X47472Y22839D02*
X46850Y20643D01*
X56380Y26566D02*
X55780Y27212D01*
X55135Y27772D01*
X54443Y28239D01*
X53702Y28607D01*
X53129Y28784D01*
X52585Y28845D01*
X52070Y28803D01*
X51586Y28671D01*
X50711Y28190D01*
X49965Y27510D01*
X49353Y26740D01*
X48880Y25985D01*
X48371Y24955D01*
X42136Y26785D02*
X42578Y26262D01*
X42964Y25671D01*
X43290Y25011D01*
X43550Y24278D01*
X43742Y23470D01*
X43859Y22586D01*
X43900Y21622D01*
X43860Y20668D01*
X39223Y28470D02*
X40511Y27972D01*
X39838Y21622D02*
X39786Y22444D01*
X39627Y23122D01*
X39360Y23666D01*
X38982Y24087D01*
X38491Y24396D01*
X39784Y20797D02*
X39838Y21622D01*
X59120Y21313D02*
X58359Y23278D01*
G54D12*
X72500Y-40914D02*
X74500Y-38923D01*
X74500Y-36932D01*
X72500Y-34941D01*
X70500Y-34941D01*
X68500Y-36932D01*
X68500Y-38923D01*
X70500Y-40914D01*
X64500Y-40914D02*
X74500Y-40914D01*
X70500Y-31954D02*
X67500Y-28968D01*
X67500Y-27972D01*
X69500Y-25981D01*
X74500Y-31954D02*
X67500Y-31954D01*
X72500Y-17021D02*
X74500Y-19012D01*
X74500Y-21003D01*
X72500Y-22994D01*
X69500Y-22994D01*
X67500Y-21003D01*
X67500Y-19012D01*
X69500Y-17021D01*
X70500Y-18017D01*
X70500Y-22994D01*
X67500Y-13039D02*
X67500Y-10052D01*
X68500Y-9057D01*
X73500Y-9057D01*
X74500Y-10052D01*
X74500Y-13039D01*
X73500Y-14034D01*
X71500Y-14034D01*
X70500Y-13039D01*
X70500Y-9057D01*
X73500Y-9057D02*
X74500Y-8061D01*
X70500Y-5074D02*
X70500Y-3083D01*
X67500Y-97D01*
X70500Y-3083D02*
X74500Y-97D01*
X74500Y-5074D02*
X64500Y-5074D01*
X72500Y3886D02*
X74500Y5877D01*
X74500Y7868D01*
X72500Y9859D01*
X69500Y9859D01*
X67500Y7868D01*
X67500Y5877D01*
X69500Y3886D01*
X72500Y3886D01*
X67500Y12846D02*
X72500Y12846D01*
X74500Y14837D01*
X74500Y16828D01*
X72500Y18819D01*
X67500Y18819D01*
X72500Y18819D02*
X74500Y18819D01*
X73500Y26783D02*
X74500Y25788D01*
X73500Y24792D01*
X64500Y24792D01*
X67500Y22801D02*
X67500Y26783D01*
X86500Y-27474D02*
X88500Y-25483D01*
X88500Y-23492D01*
X86500Y-21501D01*
X84500Y-21501D01*
X82500Y-23492D01*
X82500Y-25483D01*
X84500Y-27474D01*
X78500Y-27474D02*
X88500Y-27474D01*
X86500Y-18514D02*
X88500Y-16523D01*
X88500Y-14532D01*
X86500Y-12541D01*
X83500Y-12541D01*
X81500Y-14532D01*
X81500Y-16523D01*
X83500Y-18514D01*
X86500Y-18514D01*
X81500Y-8559D02*
X81500Y-5572D01*
X82500Y-4577D01*
X87500Y-4577D01*
X88500Y-5572D01*
X88500Y-8559D01*
X87500Y-9554D01*
X85500Y-9554D01*
X84500Y-8559D01*
X84500Y-4577D01*
X87500Y-4577D02*
X88500Y-3581D01*
X84500Y-594D02*
X81500Y2392D01*
X81500Y3388D01*
X83500Y5379D01*
X88500Y-594D02*
X81500Y-594D01*
X86500Y14339D02*
X88500Y12348D01*
X88500Y10357D01*
X86500Y8366D01*
X84500Y8366D01*
X82500Y10357D01*
X82500Y12348D01*
X84500Y14339D01*
X78500Y14339D02*
X88500Y14339D01*
X95500Y-22994D02*
X102500Y-20008D01*
X95500Y-17021D01*
X94500Y-13039D02*
X92500Y-11048D01*
X102500Y-11048D01*
X102500Y-14034D02*
X102500Y-8061D01*
X102500Y-2088D02*
X101500Y-2088D01*
X94500Y3886D02*
X92500Y5877D01*
X92500Y7868D01*
X94500Y9859D01*
X100500Y9859D01*
X102500Y7868D01*
X102500Y5877D01*
X100500Y3886D01*
X94500Y3886D01*
X94500Y9859D02*
X100500Y3886D01*
X252110Y-37351D02*
X252110Y-43324D01*
X246110Y-38347D01*
X256110Y-38347D01*
X256110Y-39342D02*
X256110Y-37351D01*
X256110Y-31378D02*
X251110Y-31378D01*
X248110Y-28391D01*
X246110Y-28391D01*
X246110Y-34364D01*
X248110Y-34364D01*
X246110Y-19431D02*
X246110Y-25404D01*
X250110Y-25404D01*
X250110Y-21422D01*
X252110Y-19431D01*
X254110Y-19431D01*
X256110Y-21422D01*
X256110Y-25404D01*
X256110Y-13458D02*
X251110Y-13458D01*
X248110Y-10471D01*
X246110Y-10471D01*
X246110Y-16444D01*
X248110Y-16444D01*
X248110Y-6489D02*
X246110Y-4498D01*
X256110Y-4498D01*
X256110Y-7484D02*
X256110Y-1511D01*
X248110Y1476D02*
X246110Y3467D01*
X246110Y5458D01*
X248110Y7449D01*
X254110Y7449D01*
X256110Y5458D01*
X256110Y3467D01*
X254110Y1476D01*
X248110Y1476D01*
X248110Y7449D02*
X254110Y1476D01*
X248110Y10436D02*
X246110Y12427D01*
X246110Y14418D01*
X248110Y16409D01*
X254110Y16409D01*
X256110Y14418D01*
X256110Y12427D01*
X254110Y10436D01*
X248110Y10436D01*
X248110Y16409D02*
X254110Y10436D01*
X248110Y19396D02*
X246110Y21387D01*
X246110Y23378D01*
X248110Y25369D01*
X254110Y25369D01*
X256110Y23378D01*
X256110Y21387D01*
X254110Y19396D01*
X248110Y19396D01*
X248110Y25369D02*
X254110Y19396D01*
X248110Y29351D02*
X246110Y31342D01*
X256110Y31342D01*
X256110Y28356D02*
X256110Y34329D01*
X240000Y-25404D02*
X230000Y-25404D01*
X235000Y-22418D01*
X230000Y-19431D01*
X240000Y-19431D01*
X238000Y-16444D02*
X240000Y-14453D01*
X240000Y-12462D01*
X238000Y-10471D01*
X235000Y-10471D01*
X233000Y-12462D01*
X233000Y-14453D01*
X235000Y-16444D01*
X238000Y-16444D01*
X230000Y-6489D02*
X238000Y-6489D01*
X240000Y-4498D01*
X238000Y7449D02*
X240000Y5458D01*
X240000Y3467D01*
X238000Y1476D01*
X235000Y1476D01*
X233000Y3467D01*
X233000Y5458D01*
X235000Y7449D01*
X236000Y6453D01*
X236000Y1476D01*
X240000Y10436D02*
X233000Y16409D01*
X233000Y10436D02*
X240000Y16409D01*
G54D13*
X136700Y-55000D02*
X142000Y-55000D01*
X150000Y47000D02*
X150000Y-47000D01*
X136700Y55000D02*
X142000Y55000D01*
X136700Y55000D02*
X135570Y48556D01*
X134582Y42089D01*
X133734Y35601D01*
X133028Y29097D01*
X132465Y22579D01*
X132043Y16050D01*
X131764Y9514D01*
X131628Y2973D01*
X131635Y-3569D01*
X131784Y-10110D01*
X132076Y-16646D01*
X132510Y-23174D01*
X133087Y-29691D01*
X133805Y-36194D01*
X134666Y-42679D01*
X135668Y-49144D01*
X136700Y-55000D01*
X140100Y55000D02*
X138970Y48554D01*
X137982Y42084D01*
X137134Y35595D01*
X136429Y29088D01*
X135865Y22568D01*
X135444Y16037D01*
X135165Y9499D01*
X135030Y2956D01*
X135036Y-3589D01*
X135186Y-10132D01*
X135479Y-16670D01*
X135913Y-23200D01*
X136491Y-29719D01*
X137210Y-36224D01*
X138071Y-42711D01*
X139074Y-49179D01*
X140100Y-55000D01*
X142000Y-55000D02*
X142697Y-54970D01*
X143389Y-54878D01*
X144071Y-54727D01*
X144736Y-54518D01*
X145381Y-54250D01*
X146000Y-53928D01*
X146589Y-53553D01*
X147142Y-53128D01*
X147657Y-52657D01*
X148128Y-52142D01*
X148553Y-51589D01*
X148928Y-51000D01*
X149250Y-50381D01*
X149518Y-49736D01*
X149727Y-49071D01*
X149878Y-48389D01*
X149970Y-47697D01*
X150000Y-47000D01*
X150000Y47000D02*
X149970Y47697D01*
X149878Y48389D01*
X149727Y49071D01*
X149518Y49736D01*
X149250Y50381D01*
X148928Y51000D01*
X148553Y51589D01*
X148128Y52142D01*
X147657Y52657D01*
X147142Y53128D01*
X146589Y53553D01*
X146000Y53928D01*
X145381Y54250D01*
X144736Y54518D01*
X144071Y54727D01*
X143389Y54878D01*
X142697Y54970D01*
X142000Y55000D01*
X152400Y50800D02*
X203200Y50800D01*
X152400Y-50800D02*
X152400Y50800D01*
X203200Y-50800D02*
X152400Y-50800D01*
X203200Y-50800D02*
X203200Y50800D01*
X260840Y-59975D02*
X260840Y54025D01*
X206340Y54025D02*
X206340Y-59975D01*
X260840Y-59975D01*
X260840Y54025D02*
X206340Y54025D01*

M02*
