M48
METRIC,TZ
VER,1
FMAT,2
DETECT,ON
ATC,ON
T1C0.3000
T2C1.0000
%
T1
X47498Y-17780
Y-28194
Y-39370
Y-50292
Y-6350
Y4572
Y15494
Y26416
Y37338
X65024Y49276
Y37592
Y26416
Y15494
Y4572
Y-6350
Y-17780
Y-28194
Y-39370
Y-50292
X72898Y49276
X86360Y37592
X81280Y42164
X91440
X86360Y-39370
Y-50292
Y-17780
Y-28194
Y15494
Y4572
Y-6350
Y26416
X102108Y49022
Y-39370
Y-50292
Y-17780
Y-28194
Y15494
Y4572
Y-6350
Y37592
Y26416
X122174Y-39370
Y-50292
X143510Y-39370
Y-50292
X122174Y-17780
Y-28194
X143510Y-17780
Y-28194
X122174Y15494
Y4572
Y-6350
X143510Y15494
Y4572
Y-6350
X122174Y37592
Y26416
X143510
X122174Y49022
X141478Y37592
Y49022
X154432Y-5588
Y6096
X154178Y-43942
X154432Y31496
Y49022
Y19558
X187452Y-49784
X165100Y-25400
X179832Y-31242
X177800Y-20066
X179578Y44196
X223012Y52578
X212852Y39116
X205232Y49784
X225298Y38354
X226314Y26670
Y4572
Y15494
Y-6350
Y-17526
Y-28448
Y-39624
X226822Y-46482
X241808Y-59690
X258826Y-46482
Y-28448
Y-6350
Y15748
Y38100
X245618Y42164
X201168Y-44704
X209550Y-59690
X219456Y-51816
X210820Y-50546
X210058Y-26162
X201168Y-19812
X202184Y-10414
X210566Y-17526
X154432Y-31750
X154178Y-18796
X176022Y-44196
X178816Y-12700
X177800Y13462
X176530Y38608
T2
X165100Y-38100
X190500
X165100Y-12700
X190500
X165100Y12700
X190500
X165100Y38100
X190500
M30
