999
DXF created by UltiBoard 14.3.0.0
0
SECTION
2
HEADER
9
$ACADVER
1
AC1014
9
$EXTMIN
10
-3.859170
20
-10.837170
30
0.0
9
$EXTMAX
10
31.157170
20
9.749670
30
0.0
9
$LUNITS
70
2
9
$HANDSEED
5
18C
0
ENDSEC
0
SECTION
2
TABLES
0
TABLE
2
VPORT
5
1
100
AcDbSymbolTable
70
1
0
VPORT
5
2
100
AcDbSymbolTableRecord
100
AcDbViewportTableRecord
2
*ACTIVE
70
0
0
ENDTAB
0
TABLE
2
LTYPE
5
3
100
AcDbSymbolTable
70
1
0
LTYPE
5
4
100
AcDbSymbolTableRecord
100
AcDbLinetypeTableRecord
2
BYBLOCK
70
0
3

72
65
73
0
40
0.0
0
LTYPE
5
5
100
AcDbSymbolTableRecord
100
AcDbLinetypeTableRecord
2
BYLAYER
70
0
3

72
65
73
0
40
0.0
0
LTYPE
5
6
100
AcDbSymbolTableRecord
100
AcDbLinetypeTableRecord
2
CONTINUOUS
70
0
3
Solid line
72
65
73
0
40
0.0
0
ENDTAB
0
TABLE
2
LAYER
5
7
100
AcDbSymbolTable
70
5
0
LAYER
5
8
100
AcDbSymbolTableRecord
100
AcDbLayerTableRecord
2
0
70
0
62
7
6
CONTINUOUS
0
LAYER
5
9
100
AcDbSymbolTableRecord
100
AcDbLayerTableRecord
2
BOARD_OUTLINE
70
0
62
2
6
CONTINUOUS
0
LAYER
5
A
100
AcDbSymbolTableRecord
100
AcDbLayerTableRecord
2
SOLDERMASK_TOP
70
0
62
200
6
CONTINUOUS
0
LAYER
5
B
100
AcDbSymbolTableRecord
100
AcDbLayerTableRecord
2
SOLDERMASK_BOTTOM
70
0
62
212
6
CONTINUOUS
0
LAYER
5
C
100
AcDbSymbolTableRecord
100
AcDbLayerTableRecord
2
BOHRUNG
70
0
62
255
6
CONTINUOUS
0
ENDTAB
0
TABLE
2
STYLE
5
D
100
AcDbSymbolTable
70
2
0
STYLE
5
E
100
AcDbSymbolTableRecord
100
AcDbTextStyleTableRecord
2
MONOTxtStyle
70
0
40
0.0
41
1.0
50
0.0
71
0
42
0.2
3
monotxt
4

0
STYLE
5
F
100
AcDbSymbolTableRecord
100
AcDbTextStyleTableRecord
2
MONOTxtStyle_M
70
0
40
0.0
41
1.0
50
0.0
71
2
42
0.2
3
monotxt
4

0
ENDTAB
0
TABLE
2
VIEW
5
10
100
AcDbSymbolTable
70
0
0
ENDTAB
0
TABLE
2
UCS
5
11
100
AcDbSymbolTable
70
0
0
ENDTAB
0
TABLE
2
APPID
5
12
100
AcDbSymbolTable
70
1
0
APPID
5
13
100
AcDbSymbolTableRecord
100
AcDbRegAppTableRecord
2
ACAD
70
0
0
ENDTAB
0
TABLE
2
DIMSTYLE
5
14
100
AcDbSymbolTable
70
1
0
DIMSTYLE
105
15
100
AcDbSymbolTableRecord
100
AcDbDimStyleTableRecord
2
STANDARD
70
0
0
ENDTAB
0
TABLE
2
BLOCK_RECORD
5
16
100
AcDbSymbolTable
70
0
0
BLOCK_RECORD
5
17
100
AcDbSymbolTableRecord
100
AcDbBlockTableRecord
2
*MODEL_SPACE
0
BLOCK_RECORD
5
18
100
AcDbSymbolTableRecord
100
AcDbBlockTableRecord
2
*PAPER_SPACE
0
ENDTAB
0
ENDSEC
0
SECTION
2
BLOCKS
0
BLOCK
5
19
100
AcDbEntity
8
0
100
AcDbBlockBegin
2
*MODEL_SPACE
70
0
0
ENDBLK
5
1A
100
AcDbEntity
8
0
100
AcDbBlockEnd
0
BLOCK
5
1B
100
AcDbEntity
8
0
100
AcDbBlockBegin
2
*PAPER_SPACE
70
0
0
ENDBLK
5
1C
100
AcDbEntity
8
0
100
AcDbBlockEnd
0
ENDSEC
0
SECTION
2
ENTITIES
0
LWPOLYLINE
5
1D
100
AcDbEntity
8
BOARD_OUTLINE
62
2
100
AcDbPolyline
90
2
70
0
43
0.203200
39
0.203200
10
15.000000
20
5.500000
10
20.447000
20
5.500000
0
LWPOLYLINE
5
1E
100
AcDbEntity
8
BOARD_OUTLINE
62
2
100
AcDbPolyline
90
2
70
0
43
0.203200
39
0.203200
10
15.000000
20
-5.500000
10
20.447000
20
-5.500000
0
LWPOLYLINE
5
1F
100
AcDbEntity
8
BOARD_OUTLINE
62
2
100
AcDbPolyline
90
2
70
0
43
0.203200
39
0.203200
10
26.416000
20
-6.477000
10
20.447000
20
-6.477000
0
LWPOLYLINE
5
20
100
AcDbEntity
8
BOARD_OUTLINE
62
2
100
AcDbPolyline
90
2
70
0
43
0.203200
39
0.203200
10
20.447000
20
-5.500000
10
20.447000
20
-6.477000
0
LWPOLYLINE
5
21
100
AcDbEntity
8
BOARD_OUTLINE
62
2
100
AcDbPolyline
90
2
70
0
43
0.203200
39
0.203200
10
20.447000
20
5.850000
10
26.416000
20
5.850000
0
LWPOLYLINE
5
22
100
AcDbEntity
8
BOARD_OUTLINE
62
2
100
AcDbPolyline
90
2
70
0
43
0.203200
39
0.203200
10
20.447000
20
5.850000
10
20.447000
20
5.500000
0
LWPOLYLINE
5
23
100
AcDbEntity
8
BOARD_OUTLINE
62
2
100
AcDbPolyline
90
2
70
0
43
0.203200
39
0.203200
10
26.416000
20
5.850000
10
26.416000
20
-6.477000
0
LWPOLYLINE
5
24
100
AcDbEntity
8
BOARD_OUTLINE
62
2
100
AcDbPolyline
90
2
70
0
43
0.203200
39
0.203200
10
0.000000
20
-4.700000
10
0.000000
20
3.400000
0
LWPOLYLINE
5
25
100
AcDbEntity
8
BOARD_OUTLINE
62
2
100
AcDbPolyline
90
2
70
0
43
0.203200
39
0.203200
10
0.000000
20
-4.700000
10
0.003044
20
-4.769724
0
LWPOLYLINE
5
26
100
AcDbEntity
8
BOARD_OUTLINE
62
2
100
AcDbPolyline
90
2
70
0
43
0.203200
39
0.203200
10
0.003044
20
-4.769724
10
0.012153
20
-4.838918
0
LWPOLYLINE
5
27
100
AcDbEntity
8
BOARD_OUTLINE
62
2
100
AcDbPolyline
90
2
70
0
43
0.203200
39
0.203200
10
0.012153
20
-4.838918
10
0.027259
20
-4.907055
0
LWPOLYLINE
5
28
100
AcDbEntity
8
BOARD_OUTLINE
62
2
100
AcDbPolyline
90
2
70
0
43
0.203200
39
0.203200
10
0.027259
20
-4.907055
10
0.048245
20
-4.973616
0
LWPOLYLINE
5
29
100
AcDbEntity
8
BOARD_OUTLINE
62
2
100
AcDbPolyline
90
2
70
0
43
0.203200
39
0.203200
10
0.048245
20
-4.973616
10
0.074953
20
-5.038094
0
LWPOLYLINE
5
2A
100
AcDbEntity
8
BOARD_OUTLINE
62
2
100
AcDbPolyline
90
2
70
0
43
0.203200
39
0.203200
10
0.074953
20
-5.038094
10
0.107179
20
-5.099999
0
LWPOLYLINE
5
2B
100
AcDbEntity
8
BOARD_OUTLINE
62
2
100
AcDbPolyline
90
2
70
0
43
0.203200
39
0.203200
10
0.107179
20
-5.099999
10
0.144678
20
-5.158861
0
LWPOLYLINE
5
2C
100
AcDbEntity
8
BOARD_OUTLINE
62
2
100
AcDbPolyline
90
2
70
0
43
0.203200
39
0.203200
10
0.144678
20
-5.158861
10
0.187164
20
-5.214230
0
LWPOLYLINE
5
2D
100
AcDbEntity
8
BOARD_OUTLINE
62
2
100
AcDbPolyline
90
2
70
0
43
0.203200
39
0.203200
10
0.187164
20
-5.214230
10
0.234314
20
-5.265685
0
LWPOLYLINE
5
2E
100
AcDbEntity
8
BOARD_OUTLINE
62
2
100
AcDbPolyline
90
2
70
0
43
0.203200
39
0.203200
10
0.234314
20
-5.265685
10
0.285769
20
-5.312835
0
LWPOLYLINE
5
2F
100
AcDbEntity
8
BOARD_OUTLINE
62
2
100
AcDbPolyline
90
2
70
0
43
0.203200
39
0.203200
10
0.285769
20
-5.312835
10
0.341138
20
-5.355321
0
LWPOLYLINE
5
30
100
AcDbEntity
8
BOARD_OUTLINE
62
2
100
AcDbPolyline
90
2
70
0
43
0.203200
39
0.203200
10
0.341138
20
-5.355321
10
0.399999
20
-5.392820
0
LWPOLYLINE
5
31
100
AcDbEntity
8
BOARD_OUTLINE
62
2
100
AcDbPolyline
90
2
70
0
43
0.203200
39
0.203200
10
0.399999
20
-5.392820
10
0.461905
20
-5.425046
0
LWPOLYLINE
5
32
100
AcDbEntity
8
BOARD_OUTLINE
62
2
100
AcDbPolyline
90
2
70
0
43
0.203200
39
0.203200
10
0.461905
20
-5.425046
10
0.526383
20
-5.451754
0
LWPOLYLINE
5
33
100
AcDbEntity
8
BOARD_OUTLINE
62
2
100
AcDbPolyline
90
2
70
0
43
0.203200
39
0.203200
10
0.526383
20
-5.451754
10
0.592944
20
-5.472740
0
LWPOLYLINE
5
34
100
AcDbEntity
8
BOARD_OUTLINE
62
2
100
AcDbPolyline
90
2
70
0
43
0.203200
39
0.203200
10
0.592944
20
-5.472740
10
0.661081
20
-5.487846
0
LWPOLYLINE
5
35
100
AcDbEntity
8
BOARD_OUTLINE
62
2
100
AcDbPolyline
90
2
70
0
43
0.203200
39
0.203200
10
0.661081
20
-5.487846
10
0.730275
20
-5.496955
0
LWPOLYLINE
5
36
100
AcDbEntity
8
BOARD_OUTLINE
62
2
100
AcDbPolyline
90
2
70
0
43
0.203200
39
0.203200
10
0.730275
20
-5.496955
10
0.799999
20
-5.500000
0
LWPOLYLINE
5
37
100
AcDbEntity
8
BOARD_OUTLINE
62
2
100
AcDbPolyline
90
2
70
0
43
0.203200
39
0.203200
10
0.799999
20
-5.500000
10
0.799999
20
-5.500000
0
LWPOLYLINE
5
38
100
AcDbEntity
8
BOARD_OUTLINE
62
2
100
AcDbPolyline
90
2
70
0
43
0.203200
39
0.203200
10
0.800000
20
-5.500000
10
15.000000
20
-5.500000
0
LWPOLYLINE
5
39
100
AcDbEntity
8
BOARD_OUTLINE
62
2
100
AcDbPolyline
90
2
70
0
43
0.203200
39
0.203200
10
0.800000
20
4.200000
10
4.760000
20
4.200000
0
LWPOLYLINE
5
3A
100
AcDbEntity
8
BOARD_OUTLINE
62
2
100
AcDbPolyline
90
2
70
0
43
0.203200
39
0.203200
10
8.090000
20
4.800000
10
9.090000
20
4.800000
0
LWPOLYLINE
5
3B
100
AcDbEntity
8
BOARD_OUTLINE
62
2
100
AcDbPolyline
90
2
70
0
43
0.203200
39
0.203200
10
9.960000
20
5.500000
10
15.000000
20
5.500000
0
LWPOLYLINE
5
3C
100
AcDbEntity
8
BOARD_OUTLINE
62
2
100
AcDbPolyline
90
2
70
0
43
0.203200
39
0.203200
10
9.370000
20
4.920000
10
9.960000
20
5.500000
0
LWPOLYLINE
5
3D
100
AcDbEntity
8
BOARD_OUTLINE
62
2
100
AcDbPolyline
90
2
70
0
43
0.203200
39
0.203200
10
9.089999
20
4.800000
10
9.124473
20
4.801844
0
LWPOLYLINE
5
3E
100
AcDbEntity
8
BOARD_OUTLINE
62
2
100
AcDbPolyline
90
2
70
0
43
0.203200
39
0.203200
10
9.124473
20
4.801844
10
9.158654
20
4.806685
0
LWPOLYLINE
5
3F
100
AcDbEntity
8
BOARD_OUTLINE
62
2
100
AcDbPolyline
90
2
70
0
43
0.203200
39
0.203200
10
9.158654
20
4.806685
10
9.192283
20
4.814486
0
LWPOLYLINE
5
40
100
AcDbEntity
8
BOARD_OUTLINE
62
2
100
AcDbPolyline
90
2
70
0
43
0.203200
39
0.203200
10
9.192283
20
4.814486
10
9.225104
20
4.825189
0
LWPOLYLINE
5
41
100
AcDbEntity
8
BOARD_OUTLINE
62
2
100
AcDbPolyline
90
2
70
0
43
0.203200
39
0.203200
10
9.225104
20
4.825189
10
9.256868
20
4.838712
0
LWPOLYLINE
5
42
100
AcDbEntity
8
BOARD_OUTLINE
62
2
100
AcDbPolyline
90
2
70
0
43
0.203200
39
0.203200
10
9.256868
20
4.838712
10
9.287332
20
4.854952
0
LWPOLYLINE
5
43
100
AcDbEntity
8
BOARD_OUTLINE
62
2
100
AcDbPolyline
90
2
70
0
43
0.203200
39
0.203200
10
9.287332
20
4.854952
10
9.316265
20
4.873785
0
LWPOLYLINE
5
44
100
AcDbEntity
8
BOARD_OUTLINE
62
2
100
AcDbPolyline
90
2
70
0
43
0.203200
39
0.203200
10
9.316265
20
4.873785
10
9.343446
20
4.895068
0
LWPOLYLINE
5
45
100
AcDbEntity
8
BOARD_OUTLINE
62
2
100
AcDbPolyline
90
2
70
0
43
0.203200
39
0.203200
10
9.343446
20
4.895068
10
9.368669
20
4.918639
0
LWPOLYLINE
5
46
100
AcDbEntity
8
BOARD_OUTLINE
62
2
100
AcDbPolyline
90
2
70
0
43
0.203200
39
0.203200
10
9.368669
20
4.918639
10
9.369998
20
4.920001
0
LWPOLYLINE
5
47
100
AcDbEntity
8
BOARD_OUTLINE
62
2
100
AcDbPolyline
90
2
70
0
43
0.203200
39
0.203200
10
7.890000
20
5.500000
10
7.890000
20
5.000000
0
LWPOLYLINE
5
48
100
AcDbEntity
8
BOARD_OUTLINE
62
2
100
AcDbPolyline
90
2
70
0
43
0.203200
39
0.203200
10
7.890000
20
5.000000
10
7.891159
20
4.982203
0
LWPOLYLINE
5
49
100
AcDbEntity
8
BOARD_OUTLINE
62
2
100
AcDbPolyline
90
2
70
0
43
0.203200
39
0.203200
10
7.891159
20
4.982203
10
7.893866
20
4.964575
0
LWPOLYLINE
5
4A
100
AcDbEntity
8
BOARD_OUTLINE
62
2
100
AcDbPolyline
90
2
70
0
43
0.203200
39
0.203200
10
7.893866
20
4.964575
10
7.898098
20
4.947250
0
LWPOLYLINE
5
4B
100
AcDbEntity
8
BOARD_OUTLINE
62
2
100
AcDbPolyline
90
2
70
0
43
0.203200
39
0.203200
10
7.898098
20
4.947250
10
7.903825
20
4.930360
0
LWPOLYLINE
5
4C
100
AcDbEntity
8
BOARD_OUTLINE
62
2
100
AcDbPolyline
90
2
70
0
43
0.203200
39
0.203200
10
7.903825
20
4.930360
10
7.911001
20
4.914034
0
LWPOLYLINE
5
4D
100
AcDbEntity
8
BOARD_OUTLINE
62
2
100
AcDbPolyline
90
2
70
0
43
0.203200
39
0.203200
10
7.911001
20
4.914034
10
7.919574
20
4.898395
0
LWPOLYLINE
5
4E
100
AcDbEntity
8
BOARD_OUTLINE
62
2
100
AcDbPolyline
90
2
70
0
43
0.203200
39
0.203200
10
7.919574
20
4.898395
10
7.929476
20
4.883562
0
LWPOLYLINE
5
4F
100
AcDbEntity
8
BOARD_OUTLINE
62
2
100
AcDbPolyline
90
2
70
0
43
0.203200
39
0.203200
10
7.929476
20
4.883562
10
7.940634
20
4.869650
0
LWPOLYLINE
5
50
100
AcDbEntity
8
BOARD_OUTLINE
62
2
100
AcDbPolyline
90
2
70
0
43
0.203200
39
0.203200
10
7.940634
20
4.869650
10
7.952962
20
4.856762
0
LWPOLYLINE
5
51
100
AcDbEntity
8
BOARD_OUTLINE
62
2
100
AcDbPolyline
90
2
70
0
43
0.203200
39
0.203200
10
7.952962
20
4.856762
10
7.966366
20
4.844998
0
LWPOLYLINE
5
52
100
AcDbEntity
8
BOARD_OUTLINE
62
2
100
AcDbPolyline
90
2
70
0
43
0.203200
39
0.203200
10
7.966366
20
4.844998
10
7.980745
20
4.834447
0
LWPOLYLINE
5
53
100
AcDbEntity
8
BOARD_OUTLINE
62
2
100
AcDbPolyline
90
2
70
0
43
0.203200
39
0.203200
10
7.980745
20
4.834447
10
7.995988
20
4.825190
0
LWPOLYLINE
5
54
100
AcDbEntity
8
BOARD_OUTLINE
62
2
100
AcDbPolyline
90
2
70
0
43
0.203200
39
0.203200
10
7.995988
20
4.825190
10
8.011980
20
4.817296
0
LWPOLYLINE
5
55
100
AcDbEntity
8
BOARD_OUTLINE
62
2
100
AcDbPolyline
90
2
70
0
43
0.203200
39
0.203200
10
8.011980
20
4.817296
10
8.028600
20
4.810826
0
LWPOLYLINE
5
56
100
AcDbEntity
8
BOARD_OUTLINE
62
2
100
AcDbPolyline
90
2
70
0
43
0.203200
39
0.203200
10
8.028600
20
4.810826
10
8.045720
20
4.805829
0
LWPOLYLINE
5
57
100
AcDbEntity
8
BOARD_OUTLINE
62
2
100
AcDbPolyline
90
2
70
0
43
0.203200
39
0.203200
10
8.045720
20
4.805829
10
8.063210
20
4.802343
0
LWPOLYLINE
5
58
100
AcDbEntity
8
BOARD_OUTLINE
62
2
100
AcDbPolyline
90
2
70
0
43
0.203200
39
0.203200
10
8.063210
20
4.802343
10
8.080938
20
4.800395
0
LWPOLYLINE
5
59
100
AcDbEntity
8
BOARD_OUTLINE
62
2
100
AcDbPolyline
90
2
70
0
43
0.203200
39
0.203200
10
8.080938
20
4.800395
10
8.090000
20
4.800000
0
LWPOLYLINE
5
5A
100
AcDbEntity
8
BOARD_OUTLINE
62
2
100
AcDbPolyline
90
2
70
0
43
0.203200
39
0.203200
10
6.390000
20
5.500000
10
7.890000
20
5.500000
0
LWPOLYLINE
5
5B
100
AcDbEntity
8
BOARD_OUTLINE
62
2
100
AcDbPolyline
90
2
70
0
43
0.203200
39
0.203200
10
6.390000
20
5.499999
10
6.355146
20
5.497973
0
LWPOLYLINE
5
5C
100
AcDbEntity
8
BOARD_OUTLINE
62
2
100
AcDbPolyline
90
2
70
0
43
0.203200
39
0.203200
10
6.355146
20
5.497973
10
6.320602
20
5.492916
0
LWPOLYLINE
5
5D
100
AcDbEntity
8
BOARD_OUTLINE
62
2
100
AcDbPolyline
90
2
70
0
43
0.203200
39
0.203200
10
6.320602
20
5.492916
10
6.286630
20
5.484869
0
LWPOLYLINE
5
5E
100
AcDbEntity
8
BOARD_OUTLINE
62
2
100
AcDbPolyline
90
2
70
0
43
0.203200
39
0.203200
10
6.286630
20
5.484869
10
6.253489
20
5.473891
0
LWPOLYLINE
5
5F
100
AcDbEntity
8
BOARD_OUTLINE
62
2
100
AcDbPolyline
90
2
70
0
43
0.203200
39
0.203200
10
6.253489
20
5.473891
10
6.221430
20
5.460066
0
LWPOLYLINE
5
60
100
AcDbEntity
8
BOARD_OUTLINE
62
2
100
AcDbPolyline
90
2
70
0
43
0.203200
39
0.203200
10
6.221430
20
5.460066
10
6.190698
20
5.443500
0
LWPOLYLINE
5
61
100
AcDbEntity
8
BOARD_OUTLINE
62
2
100
AcDbPolyline
90
2
70
0
43
0.203200
39
0.203200
10
6.190698
20
5.443500
10
6.161528
20
5.424318
0
LWPOLYLINE
5
62
100
AcDbEntity
8
BOARD_OUTLINE
62
2
100
AcDbPolyline
90
2
70
0
43
0.203200
39
0.203200
10
6.161528
20
5.424318
10
6.134140
20
5.402667
0
LWPOLYLINE
5
63
100
AcDbEntity
8
BOARD_OUTLINE
62
2
100
AcDbPolyline
90
2
70
0
43
0.203200
39
0.203200
10
6.134140
20
5.402667
10
6.110000
20
5.379999
0
LWPOLYLINE
5
64
100
AcDbEntity
8
BOARD_OUTLINE
62
2
100
AcDbPolyline
90
2
70
0
43
0.203200
39
0.203200
10
5.040000
20
4.320000
10
6.110000
20
5.380000
0
LWPOLYLINE
5
65
100
AcDbEntity
8
BOARD_OUTLINE
62
2
100
AcDbPolyline
90
2
70
0
43
0.203200
39
0.203200
10
4.759999
20
4.200000
10
4.795092
20
4.202141
0
LWPOLYLINE
5
66
100
AcDbEntity
8
BOARD_OUTLINE
62
2
100
AcDbPolyline
90
2
70
0
43
0.203200
39
0.203200
10
4.795092
20
4.202141
10
4.829864
20
4.207333
0
LWPOLYLINE
5
67
100
AcDbEntity
8
BOARD_OUTLINE
62
2
100
AcDbPolyline
90
2
70
0
43
0.203200
39
0.203200
10
4.829864
20
4.207333
10
4.864051
20
4.215535
0
LWPOLYLINE
5
68
100
AcDbEntity
8
BOARD_OUTLINE
62
2
100
AcDbPolyline
90
2
70
0
43
0.203200
39
0.203200
10
4.864051
20
4.215535
10
4.897393
20
4.226686
0
LWPOLYLINE
5
69
100
AcDbEntity
8
BOARD_OUTLINE
62
2
100
AcDbPolyline
90
2
70
0
43
0.203200
39
0.203200
10
4.897393
20
4.226686
10
4.929637
20
4.240701
0
LWPOLYLINE
5
6A
100
AcDbEntity
8
BOARD_OUTLINE
62
2
100
AcDbPolyline
90
2
70
0
43
0.203200
39
0.203200
10
4.929637
20
4.240701
10
4.960536
20
4.257472
0
LWPOLYLINE
5
6B
100
AcDbEntity
8
BOARD_OUTLINE
62
2
100
AcDbPolyline
90
2
70
0
43
0.203200
39
0.203200
10
4.960536
20
4.257472
10
4.989856
20
4.276872
0
LWPOLYLINE
5
6C
100
AcDbEntity
8
BOARD_OUTLINE
62
2
100
AcDbPolyline
90
2
70
0
43
0.203200
39
0.203200
10
4.989856
20
4.276872
10
5.017374
20
4.298755
0
LWPOLYLINE
5
6D
100
AcDbEntity
8
BOARD_OUTLINE
62
2
100
AcDbPolyline
90
2
70
0
43
0.203200
39
0.203200
10
5.017374
20
4.298755
10
5.039999
20
4.320000
0
LWPOLYLINE
5
6E
100
AcDbEntity
8
BOARD_OUTLINE
62
2
100
AcDbPolyline
90
2
70
0
43
0.203200
39
0.203200
10
0.800000
20
4.199999
10
0.729973
20
4.196625
0
LWPOLYLINE
5
6F
100
AcDbEntity
8
BOARD_OUTLINE
62
2
100
AcDbPolyline
90
2
70
0
43
0.203200
39
0.203200
10
0.729973
20
4.196625
10
0.660506
20
4.187160
0
LWPOLYLINE
5
70
100
AcDbEntity
8
BOARD_OUTLINE
62
2
100
AcDbPolyline
90
2
70
0
43
0.203200
39
0.203200
10
0.660506
20
4.187160
10
0.592129
20
4.171677
0
LWPOLYLINE
5
71
100
AcDbEntity
8
BOARD_OUTLINE
62
2
100
AcDbPolyline
90
2
70
0
43
0.203200
39
0.203200
10
0.592129
20
4.171677
10
0.525361
20
4.150294
0
LWPOLYLINE
5
72
100
AcDbEntity
8
BOARD_OUTLINE
62
2
100
AcDbPolyline
90
2
70
0
43
0.203200
39
0.203200
10
0.525361
20
4.150294
10
0.460712
20
4.123172
0
LWPOLYLINE
5
73
100
AcDbEntity
8
BOARD_OUTLINE
62
2
100
AcDbPolyline
90
2
70
0
43
0.203200
39
0.203200
10
0.460712
20
4.123172
10
0.398672
20
4.090520
0
LWPOLYLINE
5
74
100
AcDbEntity
8
BOARD_OUTLINE
62
2
100
AcDbPolyline
90
2
70
0
43
0.203200
39
0.203200
10
0.398672
20
4.090520
10
0.339714
20
4.052584
0
LWPOLYLINE
5
75
100
AcDbEntity
8
BOARD_OUTLINE
62
2
100
AcDbPolyline
90
2
70
0
43
0.203200
39
0.203200
10
0.339714
20
4.052584
10
0.284286
20
4.009654
0
LWPOLYLINE
5
76
100
AcDbEntity
8
BOARD_OUTLINE
62
2
100
AcDbPolyline
90
2
70
0
43
0.203200
39
0.203200
10
0.284286
20
4.009654
10
0.232811
20
3.962057
0
LWPOLYLINE
5
77
100
AcDbEntity
8
BOARD_OUTLINE
62
2
100
AcDbPolyline
90
2
70
0
43
0.203200
39
0.203200
10
0.232811
20
3.962057
10
0.185681
20
3.910154
0
LWPOLYLINE
5
78
100
AcDbEntity
8
BOARD_OUTLINE
62
2
100
AcDbPolyline
90
2
70
0
43
0.203200
39
0.203200
10
0.185681
20
3.910154
10
0.143253
20
3.854342
0
LWPOLYLINE
5
79
100
AcDbEntity
8
BOARD_OUTLINE
62
2
100
AcDbPolyline
90
2
70
0
43
0.203200
39
0.203200
10
0.143253
20
3.854342
10
0.105851
20
3.795043
0
LWPOLYLINE
5
7A
100
AcDbEntity
8
BOARD_OUTLINE
62
2
100
AcDbPolyline
90
2
70
0
43
0.203200
39
0.203200
10
0.105851
20
3.795043
10
0.073760
20
3.732711
0
LWPOLYLINE
5
7B
100
AcDbEntity
8
BOARD_OUTLINE
62
2
100
AcDbPolyline
90
2
70
0
43
0.203200
39
0.203200
10
0.073760
20
3.732711
10
0.047224
20
3.667819
0
LWPOLYLINE
5
7C
100
AcDbEntity
8
BOARD_OUTLINE
62
2
100
AcDbPolyline
90
2
70
0
43
0.203200
39
0.203200
10
0.047224
20
3.667819
10
0.026444
20
3.600861
0
LWPOLYLINE
5
7D
100
AcDbEntity
8
BOARD_OUTLINE
62
2
100
AcDbPolyline
90
2
70
0
43
0.203200
39
0.203200
10
0.026444
20
3.600861
10
0.011579
20
3.532347
0
LWPOLYLINE
5
7E
100
AcDbEntity
8
BOARD_OUTLINE
62
2
100
AcDbPolyline
90
2
70
0
43
0.203200
39
0.203200
10
0.011579
20
3.532347
10
0.002742
20
3.462798
0
LWPOLYLINE
5
7F
100
AcDbEntity
8
BOARD_OUTLINE
62
2
100
AcDbPolyline
90
2
70
0
43
0.203200
39
0.203200
10
0.002742
20
3.462798
10
0.000000
20
3.399999
0
HATCH
5
80
100
AcDbEntity
8
SOLDERMASK_TOP
100
AcDbHatch
10
0.0
20
0.0
30
0.0
210
0.0
220
0.0
230
1.0
2
SOLID
70
1
71
0
91
2
92
1
93
8
72
1
10
15.710000
20
-3.510000
11
15.710000
21
-4.110000
72
2
10
16.210000
20
-4.110000
40
0.500000
50
180.000000
51
270.000000
73
1
72
1
10
16.210000
20
-4.610000
11
16.810000
21
-4.610000
72
2
10
16.810000
20
-4.110000
40
0.500000
50
270.000000
51
0.000000
73
1
72
1
10
17.310000
20
-4.110000
11
17.310000
21
-3.510000
72
2
10
16.810000
20
-3.510000
40
0.500000
50
0.000000
51
90.000000
73
1
72
1
10
16.810000
20
-3.010000
11
16.210000
21
-3.010000
72
2
10
16.210000
20
-3.510000
40
0.500000
50
90.000000
51
180.000000
73
1
97
0
92
1
93
1
72
2
10
16.510000
20
-3.810000
40
0.500000
50
0.000000
51
360.000000
73
1
97
0
75
0
76
0
98
1
10
0.0
20
0.0
0
HATCH
5
81
100
AcDbEntity
8
SOLDERMASK_TOP
100
AcDbHatch
10
0.0
20
0.0
30
0.0
210
0.0
220
0.0
230
1.0
2
SOLID
70
1
71
0
91
2
92
1
93
8
72
1
10
18.250000
20
-3.510000
11
18.250000
21
-4.110000
72
2
10
18.750000
20
-4.110000
40
0.500000
50
180.000000
51
270.000000
73
1
72
1
10
18.750000
20
-4.610000
11
19.350000
21
-4.610000
72
2
10
19.350000
20
-4.110000
40
0.500000
50
270.000000
51
0.000000
73
1
72
1
10
19.850000
20
-4.110000
11
19.850000
21
-3.510000
72
2
10
19.350000
20
-3.510000
40
0.500000
50
0.000000
51
90.000000
73
1
72
1
10
19.350000
20
-3.010000
11
18.750000
21
-3.010000
72
2
10
18.750000
20
-3.510000
40
0.500000
50
90.000000
51
180.000000
73
1
97
0
92
1
93
1
72
2
10
19.050000
20
-3.810000
40
0.500000
50
0.000000
51
360.000000
73
1
97
0
75
0
76
0
98
1
10
0.0
20
0.0
0
HATCH
5
82
100
AcDbEntity
8
SOLDERMASK_TOP
100
AcDbHatch
10
0.0
20
0.0
30
0.0
210
0.0
220
0.0
230
1.0
2
SOLID
70
1
71
0
91
2
92
1
93
8
72
1
10
15.710000
20
-0.970000
11
15.710000
21
-1.570000
72
2
10
16.210000
20
-1.570000
40
0.500000
50
180.000000
51
270.000000
73
1
72
1
10
16.210000
20
-2.070000
11
16.810000
21
-2.070000
72
2
10
16.810000
20
-1.570000
40
0.500000
50
270.000000
51
0.000000
73
1
72
1
10
17.310000
20
-1.570000
11
17.310000
21
-0.970000
72
2
10
16.810000
20
-0.970000
40
0.500000
50
0.000000
51
90.000000
73
1
72
1
10
16.810000
20
-0.470000
11
16.210000
21
-0.470000
72
2
10
16.210000
20
-0.970000
40
0.500000
50
90.000000
51
180.000000
73
1
97
0
92
1
93
1
72
2
10
16.510000
20
-1.270000
40
0.500000
50
0.000000
51
360.000000
73
1
97
0
75
0
76
0
98
1
10
0.0
20
0.0
0
HATCH
5
83
100
AcDbEntity
8
SOLDERMASK_TOP
100
AcDbHatch
10
0.0
20
0.0
30
0.0
210
0.0
220
0.0
230
1.0
2
SOLID
70
1
71
0
91
2
92
1
93
8
72
1
10
18.250000
20
-0.970000
11
18.250000
21
-1.570000
72
2
10
18.750000
20
-1.570000
40
0.500000
50
180.000000
51
270.000000
73
1
72
1
10
18.750000
20
-2.070000
11
19.350000
21
-2.070000
72
2
10
19.350000
20
-1.570000
40
0.500000
50
270.000000
51
0.000000
73
1
72
1
10
19.850000
20
-1.570000
11
19.850000
21
-0.970000
72
2
10
19.350000
20
-0.970000
40
0.500000
50
0.000000
51
90.000000
73
1
72
1
10
19.350000
20
-0.470000
11
18.750000
21
-0.470000
72
2
10
18.750000
20
-0.970000
40
0.500000
50
90.000000
51
180.000000
73
1
97
0
92
1
93
1
72
2
10
19.050000
20
-1.270000
40
0.500000
50
0.000000
51
360.000000
73
1
97
0
75
0
76
0
98
1
10
0.0
20
0.0
0
HATCH
5
84
100
AcDbEntity
8
SOLDERMASK_TOP
100
AcDbHatch
10
0.0
20
0.0
30
0.0
210
0.0
220
0.0
230
1.0
2
SOLID
70
1
71
0
91
2
92
1
93
8
72
1
10
15.710000
20
1.570000
11
15.710000
21
0.970000
72
2
10
16.210000
20
0.970000
40
0.500000
50
180.000000
51
270.000000
73
1
72
1
10
16.210000
20
0.470000
11
16.810000
21
0.470000
72
2
10
16.810000
20
0.970000
40
0.500000
50
270.000000
51
0.000000
73
1
72
1
10
17.310000
20
0.970000
11
17.310000
21
1.570000
72
2
10
16.810000
20
1.570000
40
0.500000
50
0.000000
51
90.000000
73
1
72
1
10
16.810000
20
2.070000
11
16.210000
21
2.070000
72
2
10
16.210000
20
1.570000
40
0.500000
50
90.000000
51
180.000000
73
1
97
0
92
1
93
1
72
2
10
16.510000
20
1.270000
40
0.500000
50
0.000000
51
360.000000
73
1
97
0
75
0
76
0
98
1
10
0.0
20
0.0
0
HATCH
5
85
100
AcDbEntity
8
SOLDERMASK_TOP
100
AcDbHatch
10
0.0
20
0.0
30
0.0
210
0.0
220
0.0
230
1.0
2
SOLID
70
1
71
0
91
2
92
1
93
8
72
1
10
18.250000
20
1.570000
11
18.250000
21
0.970000
72
2
10
18.750000
20
0.970000
40
0.500000
50
180.000000
51
270.000000
73
1
72
1
10
18.750000
20
0.470000
11
19.350000
21
0.470000
72
2
10
19.350000
20
0.970000
40
0.500000
50
270.000000
51
0.000000
73
1
72
1
10
19.850000
20
0.970000
11
19.850000
21
1.570000
72
2
10
19.350000
20
1.570000
40
0.500000
50
0.000000
51
90.000000
73
1
72
1
10
19.350000
20
2.070000
11
18.750000
21
2.070000
72
2
10
18.750000
20
1.570000
40
0.500000
50
90.000000
51
180.000000
73
1
97
0
92
1
93
1
72
2
10
19.050000
20
1.270000
40
0.500000
50
0.000000
51
360.000000
73
1
97
0
75
0
76
0
98
1
10
0.0
20
0.0
0
HATCH
5
86
100
AcDbEntity
8
SOLDERMASK_TOP
100
AcDbHatch
10
0.0
20
0.0
30
0.0
210
0.0
220
0.0
230
1.0
2
SOLID
70
1
71
0
91
2
92
1
93
8
72
1
10
15.710000
20
4.110000
11
15.710000
21
3.510000
72
2
10
16.210000
20
3.510000
40
0.500000
50
180.000000
51
270.000000
73
1
72
1
10
16.210000
20
3.010000
11
16.810000
21
3.010000
72
2
10
16.810000
20
3.510000
40
0.500000
50
270.000000
51
0.000000
73
1
72
1
10
17.310000
20
3.510000
11
17.310000
21
4.110000
72
2
10
16.810000
20
4.110000
40
0.500000
50
0.000000
51
90.000000
73
1
72
1
10
16.810000
20
4.610000
11
16.210000
21
4.610000
72
2
10
16.210000
20
4.110000
40
0.500000
50
90.000000
51
180.000000
73
1
97
0
92
1
93
1
72
2
10
16.510000
20
3.810000
40
0.500000
50
0.000000
51
360.000000
73
1
97
0
75
0
76
0
98
1
10
0.0
20
0.0
0
HATCH
5
87
100
AcDbEntity
8
SOLDERMASK_TOP
100
AcDbHatch
10
0.0
20
0.0
30
0.0
210
0.0
220
0.0
230
1.0
2
SOLID
70
1
71
0
91
2
92
1
93
8
72
1
10
18.250000
20
4.110000
11
18.250000
21
3.510000
72
2
10
18.750000
20
3.510000
40
0.500000
50
180.000000
51
270.000000
73
1
72
1
10
18.750000
20
3.010000
11
19.350000
21
3.010000
72
2
10
19.350000
20
3.510000
40
0.500000
50
270.000000
51
0.000000
73
1
72
1
10
19.850000
20
3.510000
11
19.850000
21
4.110000
72
2
10
19.350000
20
4.110000
40
0.500000
50
0.000000
51
90.000000
73
1
72
1
10
19.350000
20
4.610000
11
18.750000
21
4.610000
72
2
10
18.750000
20
4.110000
40
0.500000
50
90.000000
51
180.000000
73
1
97
0
92
1
93
1
72
2
10
19.050000
20
3.810000
40
0.500000
50
0.000000
51
360.000000
73
1
97
0
75
0
76
0
98
1
10
0.0
20
0.0
0
SOLID
5
88
100
AcDbEntity
8
SOLDERMASK_TOP
100
AcDbTrace
10
23.494000
20
-6.145000
30
0.000000
11
22.294000
21
-6.145000
31
0.000000
12
23.494000
22
-4.995000
32
0.000000
13
22.294000
23
-4.995000
33
0.000000
0
SOLID
5
89
100
AcDbEntity
8
SOLDERMASK_TOP
100
AcDbTrace
10
26.084000
20
-6.145000
30
0.000000
11
24.884000
21
-6.145000
31
0.000000
12
26.084000
22
-4.995000
32
0.000000
13
24.884000
23
-4.995000
33
0.000000
0
SOLID
5
8A
100
AcDbEntity
8
SOLDERMASK_TOP
100
AcDbTrace
10
21.344000
20
-4.850000
30
0.000000
11
21.344000
21
-4.150000
31
0.000000
12
22.344000
22
-4.850000
32
0.000000
13
22.344000
23
-4.150000
33
0.000000
0
SOLID
5
8B
100
AcDbEntity
8
SOLDERMASK_TOP
100
AcDbTrace
10
21.344000
20
-3.750000
30
0.000000
11
21.344000
21
-3.050000
31
0.000000
12
22.344000
22
-3.750000
32
0.000000
13
22.344000
23
-3.050000
33
0.000000
0
SOLID
5
8C
100
AcDbEntity
8
SOLDERMASK_TOP
100
AcDbTrace
10
21.344000
20
-2.650000
30
0.000000
11
21.344000
21
-1.950000
31
0.000000
12
22.344000
22
-2.650000
32
0.000000
13
22.344000
23
-1.950000
33
0.000000
0
SOLID
5
8D
100
AcDbEntity
8
SOLDERMASK_TOP
100
AcDbTrace
10
21.344000
20
-1.550000
30
0.000000
11
21.344000
21
-0.850000
31
0.000000
12
22.344000
22
-1.550000
32
0.000000
13
22.344000
23
-0.850000
33
0.000000
0
SOLID
5
8E
100
AcDbEntity
8
SOLDERMASK_TOP
100
AcDbTrace
10
21.344000
20
-0.450000
30
0.000000
11
21.344000
21
0.250000
31
0.000000
12
22.344000
22
-0.450000
32
0.000000
13
22.344000
23
0.250000
33
0.000000
0
SOLID
5
8F
100
AcDbEntity
8
SOLDERMASK_TOP
100
AcDbTrace
10
21.344000
20
0.650000
30
0.000000
11
21.344000
21
1.350000
31
0.000000
12
22.344000
22
0.650000
32
0.000000
13
22.344000
23
1.350000
33
0.000000
0
SOLID
5
90
100
AcDbEntity
8
SOLDERMASK_TOP
100
AcDbTrace
10
21.344000
20
1.750000
30
0.000000
11
21.344000
21
2.450000
31
0.000000
12
22.344000
22
1.750000
32
0.000000
13
22.344000
23
2.450000
33
0.000000
0
SOLID
5
91
100
AcDbEntity
8
SOLDERMASK_TOP
100
AcDbTrace
10
21.344000
20
2.850000
30
0.000000
11
21.344000
21
3.550000
31
0.000000
12
22.344000
22
2.850000
32
0.000000
13
22.344000
23
3.550000
33
0.000000
0
SOLID
5
92
100
AcDbEntity
8
SOLDERMASK_TOP
100
AcDbTrace
10
23.934000
20
4.100000
30
0.000000
11
22.734000
21
4.100000
31
0.000000
12
23.934000
22
5.550000
32
0.000000
13
22.734000
23
5.550000
33
0.000000
0
SOLID
5
93
100
AcDbEntity
8
SOLDERMASK_TOP
100
AcDbTrace
10
26.084000
20
4.150000
30
0.000000
11
25.184000
21
4.150000
31
0.000000
12
26.084000
22
5.550000
32
0.000000
13
25.184000
23
5.550000
33
0.000000
0
SOLID
5
94
100
AcDbEntity
8
SOLDERMASK_TOP
100
AcDbTrace
10
24.834000
20
4.550000
30
0.000000
11
24.134000
21
4.550000
31
0.000000
12
24.834000
22
5.550000
32
0.000000
13
24.134000
23
5.550000
33
0.000000
0
SOLID
5
95
100
AcDbEntity
8
SOLDERMASK_BOTTOM
100
AcDbTrace
10
1.500000
20
-4.900000
30
0.000000
11
1.500000
21
-4.100000
31
0.000000
12
4.400000
22
-4.900000
32
0.000000
13
4.400000
23
-4.100000
33
0.000000
0
SOLID
5
96
100
AcDbEntity
8
SOLDERMASK_BOTTOM
100
AcDbTrace
10
1.500000
20
-3.800000
30
0.000000
11
1.500000
21
-3.000000
31
0.000000
12
4.400000
22
-3.800000
32
0.000000
13
4.400000
23
-3.000000
33
0.000000
0
SOLID
5
97
100
AcDbEntity
8
SOLDERMASK_BOTTOM
100
AcDbTrace
10
1.200000
20
-2.700000
30
0.000000
11
1.200000
21
-1.900000
31
0.000000
12
4.400000
22
-2.700000
32
0.000000
13
4.400000
23
-1.900000
33
0.000000
0
SOLID
5
98
100
AcDbEntity
8
SOLDERMASK_BOTTOM
100
AcDbTrace
10
1.500000
20
-1.600000
30
0.000000
11
1.500000
21
-0.800000
31
0.000000
12
4.400000
22
-1.600000
32
0.000000
13
4.400000
23
-0.800000
33
0.000000
0
SOLID
5
99
100
AcDbEntity
8
SOLDERMASK_BOTTOM
100
AcDbTrace
10
1.200000
20
-0.500000
30
0.000000
11
1.200000
21
0.300000
31
0.000000
12
4.400000
22
-0.500000
32
0.000000
13
4.400000
23
0.300000
33
0.000000
0
SOLID
5
9A
100
AcDbEntity
8
SOLDERMASK_BOTTOM
100
AcDbTrace
10
1.500000
20
0.600000
30
0.000000
11
1.500000
21
1.400000
31
0.000000
12
4.400000
22
0.600000
32
0.000000
13
4.400000
23
1.400000
33
0.000000
0
SOLID
5
9B
100
AcDbEntity
8
SOLDERMASK_BOTTOM
100
AcDbTrace
10
1.500000
20
1.700000
30
0.000000
11
1.500000
21
2.500000
31
0.000000
12
4.400000
22
1.700000
32
0.000000
13
4.400000
23
2.500000
33
0.000000
0
SOLID
5
9C
100
AcDbEntity
8
SOLDERMASK_BOTTOM
100
AcDbTrace
10
1.500000
20
2.800000
30
0.000000
11
1.500000
21
3.600000
31
0.000000
12
4.400000
22
2.800000
32
0.000000
13
4.400000
23
3.600000
33
0.000000
0
HATCH
5
9D
100
AcDbEntity
8
SOLDERMASK_BOTTOM
100
AcDbHatch
10
0.0
20
0.0
30
0.0
210
0.0
220
0.0
230
1.0
2
SOLID
70
1
71
0
91
2
92
1
93
8
72
1
10
15.710000
20
-3.510000
11
15.710000
21
-4.110000
72
2
10
16.210000
20
-4.110000
40
0.500000
50
180.000000
51
270.000000
73
1
72
1
10
16.210000
20
-4.610000
11
16.810000
21
-4.610000
72
2
10
16.810000
20
-4.110000
40
0.500000
50
270.000000
51
0.000000
73
1
72
1
10
17.310000
20
-4.110000
11
17.310000
21
-3.510000
72
2
10
16.810000
20
-3.510000
40
0.500000
50
0.000000
51
90.000000
73
1
72
1
10
16.810000
20
-3.010000
11
16.210000
21
-3.010000
72
2
10
16.210000
20
-3.510000
40
0.500000
50
90.000000
51
180.000000
73
1
97
0
92
1
93
1
72
2
10
16.510000
20
-3.810000
40
0.500000
50
0.000000
51
360.000000
73
1
97
0
75
0
76
0
98
1
10
0.0
20
0.0
0
HATCH
5
9E
100
AcDbEntity
8
SOLDERMASK_BOTTOM
100
AcDbHatch
10
0.0
20
0.0
30
0.0
210
0.0
220
0.0
230
1.0
2
SOLID
70
1
71
0
91
2
92
1
93
8
72
1
10
18.250000
20
-3.510000
11
18.250000
21
-4.110000
72
2
10
18.750000
20
-4.110000
40
0.500000
50
180.000000
51
270.000000
73
1
72
1
10
18.750000
20
-4.610000
11
19.350000
21
-4.610000
72
2
10
19.350000
20
-4.110000
40
0.500000
50
270.000000
51
0.000000
73
1
72
1
10
19.850000
20
-4.110000
11
19.850000
21
-3.510000
72
2
10
19.350000
20
-3.510000
40
0.500000
50
0.000000
51
90.000000
73
1
72
1
10
19.350000
20
-3.010000
11
18.750000
21
-3.010000
72
2
10
18.750000
20
-3.510000
40
0.500000
50
90.000000
51
180.000000
73
1
97
0
92
1
93
1
72
2
10
19.050000
20
-3.810000
40
0.500000
50
0.000000
51
360.000000
73
1
97
0
75
0
76
0
98
1
10
0.0
20
0.0
0
HATCH
5
9F
100
AcDbEntity
8
SOLDERMASK_BOTTOM
100
AcDbHatch
10
0.0
20
0.0
30
0.0
210
0.0
220
0.0
230
1.0
2
SOLID
70
1
71
0
91
2
92
1
93
8
72
1
10
15.710000
20
-0.970000
11
15.710000
21
-1.570000
72
2
10
16.210000
20
-1.570000
40
0.500000
50
180.000000
51
270.000000
73
1
72
1
10
16.210000
20
-2.070000
11
16.810000
21
-2.070000
72
2
10
16.810000
20
-1.570000
40
0.500000
50
270.000000
51
0.000000
73
1
72
1
10
17.310000
20
-1.570000
11
17.310000
21
-0.970000
72
2
10
16.810000
20
-0.970000
40
0.500000
50
0.000000
51
90.000000
73
1
72
1
10
16.810000
20
-0.470000
11
16.210000
21
-0.470000
72
2
10
16.210000
20
-0.970000
40
0.500000
50
90.000000
51
180.000000
73
1
97
0
92
1
93
1
72
2
10
16.510000
20
-1.270000
40
0.500000
50
0.000000
51
360.000000
73
1
97
0
75
0
76
0
98
1
10
0.0
20
0.0
0
HATCH
5
A0
100
AcDbEntity
8
SOLDERMASK_BOTTOM
100
AcDbHatch
10
0.0
20
0.0
30
0.0
210
0.0
220
0.0
230
1.0
2
SOLID
70
1
71
0
91
2
92
1
93
8
72
1
10
18.250000
20
-0.970000
11
18.250000
21
-1.570000
72
2
10
18.750000
20
-1.570000
40
0.500000
50
180.000000
51
270.000000
73
1
72
1
10
18.750000
20
-2.070000
11
19.350000
21
-2.070000
72
2
10
19.350000
20
-1.570000
40
0.500000
50
270.000000
51
0.000000
73
1
72
1
10
19.850000
20
-1.570000
11
19.850000
21
-0.970000
72
2
10
19.350000
20
-0.970000
40
0.500000
50
0.000000
51
90.000000
73
1
72
1
10
19.350000
20
-0.470000
11
18.750000
21
-0.470000
72
2
10
18.750000
20
-0.970000
40
0.500000
50
90.000000
51
180.000000
73
1
97
0
92
1
93
1
72
2
10
19.050000
20
-1.270000
40
0.500000
50
0.000000
51
360.000000
73
1
97
0
75
0
76
0
98
1
10
0.0
20
0.0
0
HATCH
5
A1
100
AcDbEntity
8
SOLDERMASK_BOTTOM
100
AcDbHatch
10
0.0
20
0.0
30
0.0
210
0.0
220
0.0
230
1.0
2
SOLID
70
1
71
0
91
2
92
1
93
8
72
1
10
15.710000
20
1.570000
11
15.710000
21
0.970000
72
2
10
16.210000
20
0.970000
40
0.500000
50
180.000000
51
270.000000
73
1
72
1
10
16.210000
20
0.470000
11
16.810000
21
0.470000
72
2
10
16.810000
20
0.970000
40
0.500000
50
270.000000
51
0.000000
73
1
72
1
10
17.310000
20
0.970000
11
17.310000
21
1.570000
72
2
10
16.810000
20
1.570000
40
0.500000
50
0.000000
51
90.000000
73
1
72
1
10
16.810000
20
2.070000
11
16.210000
21
2.070000
72
2
10
16.210000
20
1.570000
40
0.500000
50
90.000000
51
180.000000
73
1
97
0
92
1
93
1
72
2
10
16.510000
20
1.270000
40
0.500000
50
0.000000
51
360.000000
73
1
97
0
75
0
76
0
98
1
10
0.0
20
0.0
0
HATCH
5
A2
100
AcDbEntity
8
SOLDERMASK_BOTTOM
100
AcDbHatch
10
0.0
20
0.0
30
0.0
210
0.0
220
0.0
230
1.0
2
SOLID
70
1
71
0
91
2
92
1
93
8
72
1
10
18.250000
20
1.570000
11
18.250000
21
0.970000
72
2
10
18.750000
20
0.970000
40
0.500000
50
180.000000
51
270.000000
73
1
72
1
10
18.750000
20
0.470000
11
19.350000
21
0.470000
72
2
10
19.350000
20
0.970000
40
0.500000
50
270.000000
51
0.000000
73
1
72
1
10
19.850000
20
0.970000
11
19.850000
21
1.570000
72
2
10
19.350000
20
1.570000
40
0.500000
50
0.000000
51
90.000000
73
1
72
1
10
19.350000
20
2.070000
11
18.750000
21
2.070000
72
2
10
18.750000
20
1.570000
40
0.500000
50
90.000000
51
180.000000
73
1
97
0
92
1
93
1
72
2
10
19.050000
20
1.270000
40
0.500000
50
0.000000
51
360.000000
73
1
97
0
75
0
76
0
98
1
10
0.0
20
0.0
0
HATCH
5
A3
100
AcDbEntity
8
SOLDERMASK_BOTTOM
100
AcDbHatch
10
0.0
20
0.0
30
0.0
210
0.0
220
0.0
230
1.0
2
SOLID
70
1
71
0
91
2
92
1
93
8
72
1
10
15.710000
20
4.110000
11
15.710000
21
3.510000
72
2
10
16.210000
20
3.510000
40
0.500000
50
180.000000
51
270.000000
73
1
72
1
10
16.210000
20
3.010000
11
16.810000
21
3.010000
72
2
10
16.810000
20
3.510000
40
0.500000
50
270.000000
51
0.000000
73
1
72
1
10
17.310000
20
3.510000
11
17.310000
21
4.110000
72
2
10
16.810000
20
4.110000
40
0.500000
50
0.000000
51
90.000000
73
1
72
1
10
16.810000
20
4.610000
11
16.210000
21
4.610000
72
2
10
16.210000
20
4.110000
40
0.500000
50
90.000000
51
180.000000
73
1
97
0
92
1
93
1
72
2
10
16.510000
20
3.810000
40
0.500000
50
0.000000
51
360.000000
73
1
97
0
75
0
76
0
98
1
10
0.0
20
0.0
0
HATCH
5
A4
100
AcDbEntity
8
SOLDERMASK_BOTTOM
100
AcDbHatch
10
0.0
20
0.0
30
0.0
210
0.0
220
0.0
230
1.0
2
SOLID
70
1
71
0
91
2
92
1
93
8
72
1
10
18.250000
20
4.110000
11
18.250000
21
3.510000
72
2
10
18.750000
20
3.510000
40
0.500000
50
180.000000
51
270.000000
73
1
72
1
10
18.750000
20
3.010000
11
19.350000
21
3.010000
72
2
10
19.350000
20
3.510000
40
0.500000
50
270.000000
51
0.000000
73
1
72
1
10
19.850000
20
3.510000
11
19.850000
21
4.110000
72
2
10
19.350000
20
4.110000
40
0.500000
50
0.000000
51
90.000000
73
1
72
1
10
19.350000
20
4.610000
11
18.750000
21
4.610000
72
2
10
18.750000
20
4.110000
40
0.500000
50
90.000000
51
180.000000
73
1
97
0
92
1
93
1
72
2
10
19.050000
20
3.810000
40
0.500000
50
0.000000
51
360.000000
73
1
97
0
75
0
76
0
98
1
10
0.0
20
0.0
0
HATCH
5
A5
100
AcDbEntity
8
BOHRUNG
62
255
100
AcDbHatch
10
0.0
20
0.0
30
0.0
210
0.0
220
0.0
230
1.0
2
SOLID
70
1
71
0
91
1
92
1
93
1
72
2
10
4.749800
20
-1.778000
40
0.150000
50
0.000000
51
360.000000
73
1
97
0
75
0
76
0
98
1
10
0.0
20
0.0
0
CIRCLE
5
A6
100
AcDbEntity
8
BOHRUNG
62
255
100
AcDbCircle
39
0.000001
10
4.749800
20
-1.778000
30
0
40
0.150000
0
HATCH
5
A7
100
AcDbEntity
8
BOHRUNG
62
255
100
AcDbHatch
10
0.0
20
0.0
30
0.0
210
0.0
220
0.0
230
1.0
2
SOLID
70
1
71
0
91
1
92
1
93
1
72
2
10
4.749800
20
-2.819400
40
0.150000
50
0.000000
51
360.000000
73
1
97
0
75
0
76
0
98
1
10
0.0
20
0.0
0
CIRCLE
5
A8
100
AcDbEntity
8
BOHRUNG
62
255
100
AcDbCircle
39
0.000001
10
4.749800
20
-2.819400
30
0
40
0.150000
0
HATCH
5
A9
100
AcDbEntity
8
BOHRUNG
62
255
100
AcDbHatch
10
0.0
20
0.0
30
0.0
210
0.0
220
0.0
230
1.0
2
SOLID
70
1
71
0
91
1
92
1
93
1
72
2
10
4.749800
20
-3.937000
40
0.150000
50
0.000000
51
360.000000
73
1
97
0
75
0
76
0
98
1
10
0.0
20
0.0
0
CIRCLE
5
AA
100
AcDbEntity
8
BOHRUNG
62
255
100
AcDbCircle
39
0.000001
10
4.749800
20
-3.937000
30
0
40
0.150000
0
HATCH
5
AB
100
AcDbEntity
8
BOHRUNG
62
255
100
AcDbHatch
10
0.0
20
0.0
30
0.0
210
0.0
220
0.0
230
1.0
2
SOLID
70
1
71
0
91
1
92
1
93
1
72
2
10
4.749800
20
-5.029200
40
0.150000
50
0.000000
51
360.000000
73
1
97
0
75
0
76
0
98
1
10
0.0
20
0.0
0
CIRCLE
5
AC
100
AcDbEntity
8
BOHRUNG
62
255
100
AcDbCircle
39
0.000001
10
4.749800
20
-5.029200
30
0
40
0.150000
0
HATCH
5
AD
100
AcDbEntity
8
BOHRUNG
62
255
100
AcDbHatch
10
0.0
20
0.0
30
0.0
210
0.0
220
0.0
230
1.0
2
SOLID
70
1
71
0
91
1
92
1
93
1
72
2
10
4.749800
20
-0.635000
40
0.150000
50
0.000000
51
360.000000
73
1
97
0
75
0
76
0
98
1
10
0.0
20
0.0
0
CIRCLE
5
AE
100
AcDbEntity
8
BOHRUNG
62
255
100
AcDbCircle
39
0.000001
10
4.749800
20
-0.635000
30
0
40
0.150000
0
HATCH
5
AF
100
AcDbEntity
8
BOHRUNG
62
255
100
AcDbHatch
10
0.0
20
0.0
30
0.0
210
0.0
220
0.0
230
1.0
2
SOLID
70
1
71
0
91
1
92
1
93
1
72
2
10
4.749800
20
0.457200
40
0.150000
50
0.000000
51
360.000000
73
1
97
0
75
0
76
0
98
1
10
0.0
20
0.0
0
CIRCLE
5
B0
100
AcDbEntity
8
BOHRUNG
62
255
100
AcDbCircle
39
0.000001
10
4.749800
20
0.457200
30
0
40
0.150000
0
HATCH
5
B1
100
AcDbEntity
8
BOHRUNG
62
255
100
AcDbHatch
10
0.0
20
0.0
30
0.0
210
0.0
220
0.0
230
1.0
2
SOLID
70
1
71
0
91
1
92
1
93
1
72
2
10
4.749800
20
1.549400
40
0.150000
50
0.000000
51
360.000000
73
1
97
0
75
0
76
0
98
1
10
0.0
20
0.0
0
CIRCLE
5
B2
100
AcDbEntity
8
BOHRUNG
62
255
100
AcDbCircle
39
0.000001
10
4.749800
20
1.549400
30
0
40
0.150000
0
HATCH
5
B3
100
AcDbEntity
8
BOHRUNG
62
255
100
AcDbHatch
10
0.0
20
0.0
30
0.0
210
0.0
220
0.0
230
1.0
2
SOLID
70
1
71
0
91
1
92
1
93
1
72
2
10
4.749800
20
2.641600
40
0.150000
50
0.000000
51
360.000000
73
1
97
0
75
0
76
0
98
1
10
0.0
20
0.0
0
CIRCLE
5
B4
100
AcDbEntity
8
BOHRUNG
62
255
100
AcDbCircle
39
0.000001
10
4.749800
20
2.641600
30
0
40
0.150000
0
HATCH
5
B5
100
AcDbEntity
8
BOHRUNG
62
255
100
AcDbHatch
10
0.0
20
0.0
30
0.0
210
0.0
220
0.0
230
1.0
2
SOLID
70
1
71
0
91
1
92
1
93
1
72
2
10
4.749800
20
3.733800
40
0.150000
50
0.000000
51
360.000000
73
1
97
0
75
0
76
0
98
1
10
0.0
20
0.0
0
CIRCLE
5
B6
100
AcDbEntity
8
BOHRUNG
62
255
100
AcDbCircle
39
0.000001
10
4.749800
20
3.733800
30
0
40
0.150000
0
HATCH
5
B7
100
AcDbEntity
8
BOHRUNG
62
255
100
AcDbHatch
10
0.0
20
0.0
30
0.0
210
0.0
220
0.0
230
1.0
2
SOLID
70
1
71
0
91
1
92
1
93
1
72
2
10
6.502400
20
4.927600
40
0.150000
50
0.000000
51
360.000000
73
1
97
0
75
0
76
0
98
1
10
0.0
20
0.0
0
CIRCLE
5
B8
100
AcDbEntity
8
BOHRUNG
62
255
100
AcDbCircle
39
0.000001
10
6.502400
20
4.927600
30
0
40
0.150000
0
HATCH
5
B9
100
AcDbEntity
8
BOHRUNG
62
255
100
AcDbHatch
10
0.0
20
0.0
30
0.0
210
0.0
220
0.0
230
1.0
2
SOLID
70
1
71
0
91
1
92
1
93
1
72
2
10
6.502400
20
3.759200
40
0.150000
50
0.000000
51
360.000000
73
1
97
0
75
0
76
0
98
1
10
0.0
20
0.0
0
CIRCLE
5
BA
100
AcDbEntity
8
BOHRUNG
62
255
100
AcDbCircle
39
0.000001
10
6.502400
20
3.759200
30
0
40
0.150000
0
HATCH
5
BB
100
AcDbEntity
8
BOHRUNG
62
255
100
AcDbHatch
10
0.0
20
0.0
30
0.0
210
0.0
220
0.0
230
1.0
2
SOLID
70
1
71
0
91
1
92
1
93
1
72
2
10
6.502400
20
2.641600
40
0.150000
50
0.000000
51
360.000000
73
1
97
0
75
0
76
0
98
1
10
0.0
20
0.0
0
CIRCLE
5
BC
100
AcDbEntity
8
BOHRUNG
62
255
100
AcDbCircle
39
0.000001
10
6.502400
20
2.641600
30
0
40
0.150000
0
HATCH
5
BD
100
AcDbEntity
8
BOHRUNG
62
255
100
AcDbHatch
10
0.0
20
0.0
30
0.0
210
0.0
220
0.0
230
1.0
2
SOLID
70
1
71
0
91
1
92
1
93
1
72
2
10
6.502400
20
1.549400
40
0.150000
50
0.000000
51
360.000000
73
1
97
0
75
0
76
0
98
1
10
0.0
20
0.0
0
CIRCLE
5
BE
100
AcDbEntity
8
BOHRUNG
62
255
100
AcDbCircle
39
0.000001
10
6.502400
20
1.549400
30
0
40
0.150000
0
HATCH
5
BF
100
AcDbEntity
8
BOHRUNG
62
255
100
AcDbHatch
10
0.0
20
0.0
30
0.0
210
0.0
220
0.0
230
1.0
2
SOLID
70
1
71
0
91
1
92
1
93
1
72
2
10
6.502400
20
0.457200
40
0.150000
50
0.000000
51
360.000000
73
1
97
0
75
0
76
0
98
1
10
0.0
20
0.0
0
CIRCLE
5
C0
100
AcDbEntity
8
BOHRUNG
62
255
100
AcDbCircle
39
0.000001
10
6.502400
20
0.457200
30
0
40
0.150000
0
HATCH
5
C1
100
AcDbEntity
8
BOHRUNG
62
255
100
AcDbHatch
10
0.0
20
0.0
30
0.0
210
0.0
220
0.0
230
1.0
2
SOLID
70
1
71
0
91
1
92
1
93
1
72
2
10
6.502400
20
-0.635000
40
0.150000
50
0.000000
51
360.000000
73
1
97
0
75
0
76
0
98
1
10
0.0
20
0.0
0
CIRCLE
5
C2
100
AcDbEntity
8
BOHRUNG
62
255
100
AcDbCircle
39
0.000001
10
6.502400
20
-0.635000
30
0
40
0.150000
0
HATCH
5
C3
100
AcDbEntity
8
BOHRUNG
62
255
100
AcDbHatch
10
0.0
20
0.0
30
0.0
210
0.0
220
0.0
230
1.0
2
SOLID
70
1
71
0
91
1
92
1
93
1
72
2
10
6.502400
20
-1.778000
40
0.150000
50
0.000000
51
360.000000
73
1
97
0
75
0
76
0
98
1
10
0.0
20
0.0
0
CIRCLE
5
C4
100
AcDbEntity
8
BOHRUNG
62
255
100
AcDbCircle
39
0.000001
10
6.502400
20
-1.778000
30
0
40
0.150000
0
HATCH
5
C5
100
AcDbEntity
8
BOHRUNG
62
255
100
AcDbHatch
10
0.0
20
0.0
30
0.0
210
0.0
220
0.0
230
1.0
2
SOLID
70
1
71
0
91
1
92
1
93
1
72
2
10
6.502400
20
-2.819400
40
0.150000
50
0.000000
51
360.000000
73
1
97
0
75
0
76
0
98
1
10
0.0
20
0.0
0
CIRCLE
5
C6
100
AcDbEntity
8
BOHRUNG
62
255
100
AcDbCircle
39
0.000001
10
6.502400
20
-2.819400
30
0
40
0.150000
0
HATCH
5
C7
100
AcDbEntity
8
BOHRUNG
62
255
100
AcDbHatch
10
0.0
20
0.0
30
0.0
210
0.0
220
0.0
230
1.0
2
SOLID
70
1
71
0
91
1
92
1
93
1
72
2
10
6.502400
20
-3.937000
40
0.150000
50
0.000000
51
360.000000
73
1
97
0
75
0
76
0
98
1
10
0.0
20
0.0
0
CIRCLE
5
C8
100
AcDbEntity
8
BOHRUNG
62
255
100
AcDbCircle
39
0.000001
10
6.502400
20
-3.937000
30
0
40
0.150000
0
HATCH
5
C9
100
AcDbEntity
8
BOHRUNG
62
255
100
AcDbHatch
10
0.0
20
0.0
30
0.0
210
0.0
220
0.0
230
1.0
2
SOLID
70
1
71
0
91
1
92
1
93
1
72
2
10
6.502400
20
-5.029200
40
0.150000
50
0.000000
51
360.000000
73
1
97
0
75
0
76
0
98
1
10
0.0
20
0.0
0
CIRCLE
5
CA
100
AcDbEntity
8
BOHRUNG
62
255
100
AcDbCircle
39
0.000001
10
6.502400
20
-5.029200
30
0
40
0.150000
0
HATCH
5
CB
100
AcDbEntity
8
BOHRUNG
62
255
100
AcDbHatch
10
0.0
20
0.0
30
0.0
210
0.0
220
0.0
230
1.0
2
SOLID
70
1
71
0
91
1
92
1
93
1
72
2
10
7.289800
20
4.927600
40
0.150000
50
0.000000
51
360.000000
73
1
97
0
75
0
76
0
98
1
10
0.0
20
0.0
0
CIRCLE
5
CC
100
AcDbEntity
8
BOHRUNG
62
255
100
AcDbCircle
39
0.000001
10
7.289800
20
4.927600
30
0
40
0.150000
0
HATCH
5
CD
100
AcDbEntity
8
BOHRUNG
62
255
100
AcDbHatch
10
0.0
20
0.0
30
0.0
210
0.0
220
0.0
230
1.0
2
SOLID
70
1
71
0
91
1
92
1
93
1
72
2
10
8.636000
20
3.759200
40
0.150000
50
0.000000
51
360.000000
73
1
97
0
75
0
76
0
98
1
10
0.0
20
0.0
0
CIRCLE
5
CE
100
AcDbEntity
8
BOHRUNG
62
255
100
AcDbCircle
39
0.000001
10
8.636000
20
3.759200
30
0
40
0.150000
0
HATCH
5
CF
100
AcDbEntity
8
BOHRUNG
62
255
100
AcDbHatch
10
0.0
20
0.0
30
0.0
210
0.0
220
0.0
230
1.0
2
SOLID
70
1
71
0
91
1
92
1
93
1
72
2
10
8.128000
20
4.216400
40
0.150000
50
0.000000
51
360.000000
73
1
97
0
75
0
76
0
98
1
10
0.0
20
0.0
0
CIRCLE
5
D0
100
AcDbEntity
8
BOHRUNG
62
255
100
AcDbCircle
39
0.000001
10
8.128000
20
4.216400
30
0
40
0.150000
0
HATCH
5
D1
100
AcDbEntity
8
BOHRUNG
62
255
100
AcDbHatch
10
0.0
20
0.0
30
0.0
210
0.0
220
0.0
230
1.0
2
SOLID
70
1
71
0
91
1
92
1
93
1
72
2
10
9.144000
20
4.216400
40
0.150000
50
0.000000
51
360.000000
73
1
97
0
75
0
76
0
98
1
10
0.0
20
0.0
0
CIRCLE
5
D2
100
AcDbEntity
8
BOHRUNG
62
255
100
AcDbCircle
39
0.000001
10
9.144000
20
4.216400
30
0
40
0.150000
0
HATCH
5
D3
100
AcDbEntity
8
BOHRUNG
62
255
100
AcDbHatch
10
0.0
20
0.0
30
0.0
210
0.0
220
0.0
230
1.0
2
SOLID
70
1
71
0
91
1
92
1
93
1
72
2
10
8.636000
20
-3.937000
40
0.150000
50
0.000000
51
360.000000
73
1
97
0
75
0
76
0
98
1
10
0.0
20
0.0
0
CIRCLE
5
D4
100
AcDbEntity
8
BOHRUNG
62
255
100
AcDbCircle
39
0.000001
10
8.636000
20
-3.937000
30
0
40
0.150000
0
HATCH
5
D5
100
AcDbEntity
8
BOHRUNG
62
255
100
AcDbHatch
10
0.0
20
0.0
30
0.0
210
0.0
220
0.0
230
1.0
2
SOLID
70
1
71
0
91
1
92
1
93
1
72
2
10
8.636000
20
-5.029200
40
0.150000
50
0.000000
51
360.000000
73
1
97
0
75
0
76
0
98
1
10
0.0
20
0.0
0
CIRCLE
5
D6
100
AcDbEntity
8
BOHRUNG
62
255
100
AcDbCircle
39
0.000001
10
8.636000
20
-5.029200
30
0
40
0.150000
0
HATCH
5
D7
100
AcDbEntity
8
BOHRUNG
62
255
100
AcDbHatch
10
0.0
20
0.0
30
0.0
210
0.0
220
0.0
230
1.0
2
SOLID
70
1
71
0
91
1
92
1
93
1
72
2
10
8.636000
20
-1.778000
40
0.150000
50
0.000000
51
360.000000
73
1
97
0
75
0
76
0
98
1
10
0.0
20
0.0
0
CIRCLE
5
D8
100
AcDbEntity
8
BOHRUNG
62
255
100
AcDbCircle
39
0.000001
10
8.636000
20
-1.778000
30
0
40
0.150000
0
HATCH
5
D9
100
AcDbEntity
8
BOHRUNG
62
255
100
AcDbHatch
10
0.0
20
0.0
30
0.0
210
0.0
220
0.0
230
1.0
2
SOLID
70
1
71
0
91
1
92
1
93
1
72
2
10
8.636000
20
-2.819400
40
0.150000
50
0.000000
51
360.000000
73
1
97
0
75
0
76
0
98
1
10
0.0
20
0.0
0
CIRCLE
5
DA
100
AcDbEntity
8
BOHRUNG
62
255
100
AcDbCircle
39
0.000001
10
8.636000
20
-2.819400
30
0
40
0.150000
0
HATCH
5
DB
100
AcDbEntity
8
BOHRUNG
62
255
100
AcDbHatch
10
0.0
20
0.0
30
0.0
210
0.0
220
0.0
230
1.0
2
SOLID
70
1
71
0
91
1
92
1
93
1
72
2
10
8.636000
20
1.549400
40
0.150000
50
0.000000
51
360.000000
73
1
97
0
75
0
76
0
98
1
10
0.0
20
0.0
0
CIRCLE
5
DC
100
AcDbEntity
8
BOHRUNG
62
255
100
AcDbCircle
39
0.000001
10
8.636000
20
1.549400
30
0
40
0.150000
0
HATCH
5
DD
100
AcDbEntity
8
BOHRUNG
62
255
100
AcDbHatch
10
0.0
20
0.0
30
0.0
210
0.0
220
0.0
230
1.0
2
SOLID
70
1
71
0
91
1
92
1
93
1
72
2
10
8.636000
20
0.457200
40
0.150000
50
0.000000
51
360.000000
73
1
97
0
75
0
76
0
98
1
10
0.0
20
0.0
0
CIRCLE
5
DE
100
AcDbEntity
8
BOHRUNG
62
255
100
AcDbCircle
39
0.000001
10
8.636000
20
0.457200
30
0
40
0.150000
0
HATCH
5
DF
100
AcDbEntity
8
BOHRUNG
62
255
100
AcDbHatch
10
0.0
20
0.0
30
0.0
210
0.0
220
0.0
230
1.0
2
SOLID
70
1
71
0
91
1
92
1
93
1
72
2
10
8.636000
20
-0.635000
40
0.150000
50
0.000000
51
360.000000
73
1
97
0
75
0
76
0
98
1
10
0.0
20
0.0
0
CIRCLE
5
E0
100
AcDbEntity
8
BOHRUNG
62
255
100
AcDbCircle
39
0.000001
10
8.636000
20
-0.635000
30
0
40
0.150000
0
HATCH
5
E1
100
AcDbEntity
8
BOHRUNG
62
255
100
AcDbHatch
10
0.0
20
0.0
30
0.0
210
0.0
220
0.0
230
1.0
2
SOLID
70
1
71
0
91
1
92
1
93
1
72
2
10
8.636000
20
2.641600
40
0.150000
50
0.000000
51
360.000000
73
1
97
0
75
0
76
0
98
1
10
0.0
20
0.0
0
CIRCLE
5
E2
100
AcDbEntity
8
BOHRUNG
62
255
100
AcDbCircle
39
0.000001
10
8.636000
20
2.641600
30
0
40
0.150000
0
HATCH
5
E3
100
AcDbEntity
8
BOHRUNG
62
255
100
AcDbHatch
10
0.0
20
0.0
30
0.0
210
0.0
220
0.0
230
1.0
2
SOLID
70
1
71
0
91
1
92
1
93
1
72
2
10
10.210800
20
4.902200
40
0.150000
50
0.000000
51
360.000000
73
1
97
0
75
0
76
0
98
1
10
0.0
20
0.0
0
CIRCLE
5
E4
100
AcDbEntity
8
BOHRUNG
62
255
100
AcDbCircle
39
0.000001
10
10.210800
20
4.902200
30
0
40
0.150000
0
HATCH
5
E5
100
AcDbEntity
8
BOHRUNG
62
255
100
AcDbHatch
10
0.0
20
0.0
30
0.0
210
0.0
220
0.0
230
1.0
2
SOLID
70
1
71
0
91
1
92
1
93
1
72
2
10
10.210800
20
-3.937000
40
0.150000
50
0.000000
51
360.000000
73
1
97
0
75
0
76
0
98
1
10
0.0
20
0.0
0
CIRCLE
5
E6
100
AcDbEntity
8
BOHRUNG
62
255
100
AcDbCircle
39
0.000001
10
10.210800
20
-3.937000
30
0
40
0.150000
0
HATCH
5
E7
100
AcDbEntity
8
BOHRUNG
62
255
100
AcDbHatch
10
0.0
20
0.0
30
0.0
210
0.0
220
0.0
230
1.0
2
SOLID
70
1
71
0
91
1
92
1
93
1
72
2
10
10.210800
20
-5.029200
40
0.150000
50
0.000000
51
360.000000
73
1
97
0
75
0
76
0
98
1
10
0.0
20
0.0
0
CIRCLE
5
E8
100
AcDbEntity
8
BOHRUNG
62
255
100
AcDbCircle
39
0.000001
10
10.210800
20
-5.029200
30
0
40
0.150000
0
HATCH
5
E9
100
AcDbEntity
8
BOHRUNG
62
255
100
AcDbHatch
10
0.0
20
0.0
30
0.0
210
0.0
220
0.0
230
1.0
2
SOLID
70
1
71
0
91
1
92
1
93
1
72
2
10
10.210800
20
-1.778000
40
0.150000
50
0.000000
51
360.000000
73
1
97
0
75
0
76
0
98
1
10
0.0
20
0.0
0
CIRCLE
5
EA
100
AcDbEntity
8
BOHRUNG
62
255
100
AcDbCircle
39
0.000001
10
10.210800
20
-1.778000
30
0
40
0.150000
0
HATCH
5
EB
100
AcDbEntity
8
BOHRUNG
62
255
100
AcDbHatch
10
0.0
20
0.0
30
0.0
210
0.0
220
0.0
230
1.0
2
SOLID
70
1
71
0
91
1
92
1
93
1
72
2
10
10.210800
20
-2.819400
40
0.150000
50
0.000000
51
360.000000
73
1
97
0
75
0
76
0
98
1
10
0.0
20
0.0
0
CIRCLE
5
EC
100
AcDbEntity
8
BOHRUNG
62
255
100
AcDbCircle
39
0.000001
10
10.210800
20
-2.819400
30
0
40
0.150000
0
HATCH
5
ED
100
AcDbEntity
8
BOHRUNG
62
255
100
AcDbHatch
10
0.0
20
0.0
30
0.0
210
0.0
220
0.0
230
1.0
2
SOLID
70
1
71
0
91
1
92
1
93
1
72
2
10
10.210800
20
1.549400
40
0.150000
50
0.000000
51
360.000000
73
1
97
0
75
0
76
0
98
1
10
0.0
20
0.0
0
CIRCLE
5
EE
100
AcDbEntity
8
BOHRUNG
62
255
100
AcDbCircle
39
0.000001
10
10.210800
20
1.549400
30
0
40
0.150000
0
HATCH
5
EF
100
AcDbEntity
8
BOHRUNG
62
255
100
AcDbHatch
10
0.0
20
0.0
30
0.0
210
0.0
220
0.0
230
1.0
2
SOLID
70
1
71
0
91
1
92
1
93
1
72
2
10
10.210800
20
0.457200
40
0.150000
50
0.000000
51
360.000000
73
1
97
0
75
0
76
0
98
1
10
0.0
20
0.0
0
CIRCLE
5
F0
100
AcDbEntity
8
BOHRUNG
62
255
100
AcDbCircle
39
0.000001
10
10.210800
20
0.457200
30
0
40
0.150000
0
HATCH
5
F1
100
AcDbEntity
8
BOHRUNG
62
255
100
AcDbHatch
10
0.0
20
0.0
30
0.0
210
0.0
220
0.0
230
1.0
2
SOLID
70
1
71
0
91
1
92
1
93
1
72
2
10
10.210800
20
-0.635000
40
0.150000
50
0.000000
51
360.000000
73
1
97
0
75
0
76
0
98
1
10
0.0
20
0.0
0
CIRCLE
5
F2
100
AcDbEntity
8
BOHRUNG
62
255
100
AcDbCircle
39
0.000001
10
10.210800
20
-0.635000
30
0
40
0.150000
0
HATCH
5
F3
100
AcDbEntity
8
BOHRUNG
62
255
100
AcDbHatch
10
0.0
20
0.0
30
0.0
210
0.0
220
0.0
230
1.0
2
SOLID
70
1
71
0
91
1
92
1
93
1
72
2
10
10.210800
20
3.759200
40
0.150000
50
0.000000
51
360.000000
73
1
97
0
75
0
76
0
98
1
10
0.0
20
0.0
0
CIRCLE
5
F4
100
AcDbEntity
8
BOHRUNG
62
255
100
AcDbCircle
39
0.000001
10
10.210800
20
3.759200
30
0
40
0.150000
0
HATCH
5
F5
100
AcDbEntity
8
BOHRUNG
62
255
100
AcDbHatch
10
0.0
20
0.0
30
0.0
210
0.0
220
0.0
230
1.0
2
SOLID
70
1
71
0
91
1
92
1
93
1
72
2
10
10.210800
20
2.641600
40
0.150000
50
0.000000
51
360.000000
73
1
97
0
75
0
76
0
98
1
10
0.0
20
0.0
0
CIRCLE
5
F6
100
AcDbEntity
8
BOHRUNG
62
255
100
AcDbCircle
39
0.000001
10
10.210800
20
2.641600
30
0
40
0.150000
0
HATCH
5
F7
100
AcDbEntity
8
BOHRUNG
62
255
100
AcDbHatch
10
0.0
20
0.0
30
0.0
210
0.0
220
0.0
230
1.0
2
SOLID
70
1
71
0
91
1
92
1
93
1
72
2
10
12.217400
20
-3.937000
40
0.150000
50
0.000000
51
360.000000
73
1
97
0
75
0
76
0
98
1
10
0.0
20
0.0
0
CIRCLE
5
F8
100
AcDbEntity
8
BOHRUNG
62
255
100
AcDbCircle
39
0.000001
10
12.217400
20
-3.937000
30
0
40
0.150000
0
HATCH
5
F9
100
AcDbEntity
8
BOHRUNG
62
255
100
AcDbHatch
10
0.0
20
0.0
30
0.0
210
0.0
220
0.0
230
1.0
2
SOLID
70
1
71
0
91
1
92
1
93
1
72
2
10
12.217400
20
-5.029200
40
0.150000
50
0.000000
51
360.000000
73
1
97
0
75
0
76
0
98
1
10
0.0
20
0.0
0
CIRCLE
5
FA
100
AcDbEntity
8
BOHRUNG
62
255
100
AcDbCircle
39
0.000001
10
12.217400
20
-5.029200
30
0
40
0.150000
0
HATCH
5
FB
100
AcDbEntity
8
BOHRUNG
62
255
100
AcDbHatch
10
0.0
20
0.0
30
0.0
210
0.0
220
0.0
230
1.0
2
SOLID
70
1
71
0
91
1
92
1
93
1
72
2
10
14.351000
20
-3.937000
40
0.150000
50
0.000000
51
360.000000
73
1
97
0
75
0
76
0
98
1
10
0.0
20
0.0
0
CIRCLE
5
FC
100
AcDbEntity
8
BOHRUNG
62
255
100
AcDbCircle
39
0.000001
10
14.351000
20
-3.937000
30
0
40
0.150000
0
HATCH
5
FD
100
AcDbEntity
8
BOHRUNG
62
255
100
AcDbHatch
10
0.0
20
0.0
30
0.0
210
0.0
220
0.0
230
1.0
2
SOLID
70
1
71
0
91
1
92
1
93
1
72
2
10
14.351000
20
-5.029200
40
0.150000
50
0.000000
51
360.000000
73
1
97
0
75
0
76
0
98
1
10
0.0
20
0.0
0
CIRCLE
5
FE
100
AcDbEntity
8
BOHRUNG
62
255
100
AcDbCircle
39
0.000001
10
14.351000
20
-5.029200
30
0
40
0.150000
0
HATCH
5
FF
100
AcDbEntity
8
BOHRUNG
62
255
100
AcDbHatch
10
0.0
20
0.0
30
0.0
210
0.0
220
0.0
230
1.0
2
SOLID
70
1
71
0
91
1
92
1
93
1
72
2
10
12.217400
20
-1.778000
40
0.150000
50
0.000000
51
360.000000
73
1
97
0
75
0
76
0
98
1
10
0.0
20
0.0
0
CIRCLE
5
100
100
AcDbEntity
8
BOHRUNG
62
255
100
AcDbCircle
39
0.000001
10
12.217400
20
-1.778000
30
0
40
0.150000
0
HATCH
5
101
100
AcDbEntity
8
BOHRUNG
62
255
100
AcDbHatch
10
0.0
20
0.0
30
0.0
210
0.0
220
0.0
230
1.0
2
SOLID
70
1
71
0
91
1
92
1
93
1
72
2
10
12.217400
20
-2.819400
40
0.150000
50
0.000000
51
360.000000
73
1
97
0
75
0
76
0
98
1
10
0.0
20
0.0
0
CIRCLE
5
102
100
AcDbEntity
8
BOHRUNG
62
255
100
AcDbCircle
39
0.000001
10
12.217400
20
-2.819400
30
0
40
0.150000
0
HATCH
5
103
100
AcDbEntity
8
BOHRUNG
62
255
100
AcDbHatch
10
0.0
20
0.0
30
0.0
210
0.0
220
0.0
230
1.0
2
SOLID
70
1
71
0
91
1
92
1
93
1
72
2
10
14.351000
20
-1.778000
40
0.150000
50
0.000000
51
360.000000
73
1
97
0
75
0
76
0
98
1
10
0.0
20
0.0
0
CIRCLE
5
104
100
AcDbEntity
8
BOHRUNG
62
255
100
AcDbCircle
39
0.000001
10
14.351000
20
-1.778000
30
0
40
0.150000
0
HATCH
5
105
100
AcDbEntity
8
BOHRUNG
62
255
100
AcDbHatch
10
0.0
20
0.0
30
0.0
210
0.0
220
0.0
230
1.0
2
SOLID
70
1
71
0
91
1
92
1
93
1
72
2
10
14.351000
20
-2.819400
40
0.150000
50
0.000000
51
360.000000
73
1
97
0
75
0
76
0
98
1
10
0.0
20
0.0
0
CIRCLE
5
106
100
AcDbEntity
8
BOHRUNG
62
255
100
AcDbCircle
39
0.000001
10
14.351000
20
-2.819400
30
0
40
0.150000
0
HATCH
5
107
100
AcDbEntity
8
BOHRUNG
62
255
100
AcDbHatch
10
0.0
20
0.0
30
0.0
210
0.0
220
0.0
230
1.0
2
SOLID
70
1
71
0
91
1
92
1
93
1
72
2
10
12.217400
20
1.549400
40
0.150000
50
0.000000
51
360.000000
73
1
97
0
75
0
76
0
98
1
10
0.0
20
0.0
0
CIRCLE
5
108
100
AcDbEntity
8
BOHRUNG
62
255
100
AcDbCircle
39
0.000001
10
12.217400
20
1.549400
30
0
40
0.150000
0
HATCH
5
109
100
AcDbEntity
8
BOHRUNG
62
255
100
AcDbHatch
10
0.0
20
0.0
30
0.0
210
0.0
220
0.0
230
1.0
2
SOLID
70
1
71
0
91
1
92
1
93
1
72
2
10
12.217400
20
0.457200
40
0.150000
50
0.000000
51
360.000000
73
1
97
0
75
0
76
0
98
1
10
0.0
20
0.0
0
CIRCLE
5
10A
100
AcDbEntity
8
BOHRUNG
62
255
100
AcDbCircle
39
0.000001
10
12.217400
20
0.457200
30
0
40
0.150000
0
HATCH
5
10B
100
AcDbEntity
8
BOHRUNG
62
255
100
AcDbHatch
10
0.0
20
0.0
30
0.0
210
0.0
220
0.0
230
1.0
2
SOLID
70
1
71
0
91
1
92
1
93
1
72
2
10
12.217400
20
-0.635000
40
0.150000
50
0.000000
51
360.000000
73
1
97
0
75
0
76
0
98
1
10
0.0
20
0.0
0
CIRCLE
5
10C
100
AcDbEntity
8
BOHRUNG
62
255
100
AcDbCircle
39
0.000001
10
12.217400
20
-0.635000
30
0
40
0.150000
0
HATCH
5
10D
100
AcDbEntity
8
BOHRUNG
62
255
100
AcDbHatch
10
0.0
20
0.0
30
0.0
210
0.0
220
0.0
230
1.0
2
SOLID
70
1
71
0
91
1
92
1
93
1
72
2
10
14.351000
20
1.549400
40
0.150000
50
0.000000
51
360.000000
73
1
97
0
75
0
76
0
98
1
10
0.0
20
0.0
0
CIRCLE
5
10E
100
AcDbEntity
8
BOHRUNG
62
255
100
AcDbCircle
39
0.000001
10
14.351000
20
1.549400
30
0
40
0.150000
0
HATCH
5
10F
100
AcDbEntity
8
BOHRUNG
62
255
100
AcDbHatch
10
0.0
20
0.0
30
0.0
210
0.0
220
0.0
230
1.0
2
SOLID
70
1
71
0
91
1
92
1
93
1
72
2
10
14.351000
20
0.457200
40
0.150000
50
0.000000
51
360.000000
73
1
97
0
75
0
76
0
98
1
10
0.0
20
0.0
0
CIRCLE
5
110
100
AcDbEntity
8
BOHRUNG
62
255
100
AcDbCircle
39
0.000001
10
14.351000
20
0.457200
30
0
40
0.150000
0
HATCH
5
111
100
AcDbEntity
8
BOHRUNG
62
255
100
AcDbHatch
10
0.0
20
0.0
30
0.0
210
0.0
220
0.0
230
1.0
2
SOLID
70
1
71
0
91
1
92
1
93
1
72
2
10
14.351000
20
-0.635000
40
0.150000
50
0.000000
51
360.000000
73
1
97
0
75
0
76
0
98
1
10
0.0
20
0.0
0
CIRCLE
5
112
100
AcDbEntity
8
BOHRUNG
62
255
100
AcDbCircle
39
0.000001
10
14.351000
20
-0.635000
30
0
40
0.150000
0
HATCH
5
113
100
AcDbEntity
8
BOHRUNG
62
255
100
AcDbHatch
10
0.0
20
0.0
30
0.0
210
0.0
220
0.0
230
1.0
2
SOLID
70
1
71
0
91
1
92
1
93
1
72
2
10
12.217400
20
3.759200
40
0.150000
50
0.000000
51
360.000000
73
1
97
0
75
0
76
0
98
1
10
0.0
20
0.0
0
CIRCLE
5
114
100
AcDbEntity
8
BOHRUNG
62
255
100
AcDbCircle
39
0.000001
10
12.217400
20
3.759200
30
0
40
0.150000
0
HATCH
5
115
100
AcDbEntity
8
BOHRUNG
62
255
100
AcDbHatch
10
0.0
20
0.0
30
0.0
210
0.0
220
0.0
230
1.0
2
SOLID
70
1
71
0
91
1
92
1
93
1
72
2
10
12.217400
20
2.641600
40
0.150000
50
0.000000
51
360.000000
73
1
97
0
75
0
76
0
98
1
10
0.0
20
0.0
0
CIRCLE
5
116
100
AcDbEntity
8
BOHRUNG
62
255
100
AcDbCircle
39
0.000001
10
12.217400
20
2.641600
30
0
40
0.150000
0
HATCH
5
117
100
AcDbEntity
8
BOHRUNG
62
255
100
AcDbHatch
10
0.0
20
0.0
30
0.0
210
0.0
220
0.0
230
1.0
2
SOLID
70
1
71
0
91
1
92
1
93
1
72
2
10
14.351000
20
2.641600
40
0.150000
50
0.000000
51
360.000000
73
1
97
0
75
0
76
0
98
1
10
0.0
20
0.0
0
CIRCLE
5
118
100
AcDbEntity
8
BOHRUNG
62
255
100
AcDbCircle
39
0.000001
10
14.351000
20
2.641600
30
0
40
0.150000
0
HATCH
5
119
100
AcDbEntity
8
BOHRUNG
62
255
100
AcDbHatch
10
0.0
20
0.0
30
0.0
210
0.0
220
0.0
230
1.0
2
SOLID
70
1
71
0
91
1
92
1
93
1
72
2
10
12.217400
20
4.902200
40
0.150000
50
0.000000
51
360.000000
73
1
97
0
75
0
76
0
98
1
10
0.0
20
0.0
0
CIRCLE
5
11A
100
AcDbEntity
8
BOHRUNG
62
255
100
AcDbCircle
39
0.000001
10
12.217400
20
4.902200
30
0
40
0.150000
0
HATCH
5
11B
100
AcDbEntity
8
BOHRUNG
62
255
100
AcDbHatch
10
0.0
20
0.0
30
0.0
210
0.0
220
0.0
230
1.0
2
SOLID
70
1
71
0
91
1
92
1
93
1
72
2
10
14.147800
20
3.759200
40
0.150000
50
0.000000
51
360.000000
73
1
97
0
75
0
76
0
98
1
10
0.0
20
0.0
0
CIRCLE
5
11C
100
AcDbEntity
8
BOHRUNG
62
255
100
AcDbCircle
39
0.000001
10
14.147800
20
3.759200
30
0
40
0.150000
0
HATCH
5
11D
100
AcDbEntity
8
BOHRUNG
62
255
100
AcDbHatch
10
0.0
20
0.0
30
0.0
210
0.0
220
0.0
230
1.0
2
SOLID
70
1
71
0
91
1
92
1
93
1
72
2
10
14.147800
20
4.902200
40
0.150000
50
0.000000
51
360.000000
73
1
97
0
75
0
76
0
98
1
10
0.0
20
0.0
0
CIRCLE
5
11E
100
AcDbEntity
8
BOHRUNG
62
255
100
AcDbCircle
39
0.000001
10
14.147800
20
4.902200
30
0
40
0.150000
0
HATCH
5
11F
100
AcDbEntity
8
BOHRUNG
62
255
100
AcDbHatch
10
0.0
20
0.0
30
0.0
210
0.0
220
0.0
230
1.0
2
SOLID
70
1
71
0
91
1
92
1
93
1
72
2
10
15.443200
20
-0.558800
40
0.150000
50
0.000000
51
360.000000
73
1
97
0
75
0
76
0
98
1
10
0.0
20
0.0
0
CIRCLE
5
120
100
AcDbEntity
8
BOHRUNG
62
255
100
AcDbCircle
39
0.000001
10
15.443200
20
-0.558800
30
0
40
0.150000
0
HATCH
5
121
100
AcDbEntity
8
BOHRUNG
62
255
100
AcDbHatch
10
0.0
20
0.0
30
0.0
210
0.0
220
0.0
230
1.0
2
SOLID
70
1
71
0
91
1
92
1
93
1
72
2
10
15.443200
20
0.609600
40
0.150000
50
0.000000
51
360.000000
73
1
97
0
75
0
76
0
98
1
10
0.0
20
0.0
0
CIRCLE
5
122
100
AcDbEntity
8
BOHRUNG
62
255
100
AcDbCircle
39
0.000001
10
15.443200
20
0.609600
30
0
40
0.150000
0
HATCH
5
123
100
AcDbEntity
8
BOHRUNG
62
255
100
AcDbHatch
10
0.0
20
0.0
30
0.0
210
0.0
220
0.0
230
1.0
2
SOLID
70
1
71
0
91
1
92
1
93
1
72
2
10
15.417800
20
-4.394200
40
0.150000
50
0.000000
51
360.000000
73
1
97
0
75
0
76
0
98
1
10
0.0
20
0.0
0
CIRCLE
5
124
100
AcDbEntity
8
BOHRUNG
62
255
100
AcDbCircle
39
0.000001
10
15.417800
20
-4.394200
30
0
40
0.150000
0
HATCH
5
125
100
AcDbEntity
8
BOHRUNG
62
255
100
AcDbHatch
10
0.0
20
0.0
30
0.0
210
0.0
220
0.0
230
1.0
2
SOLID
70
1
71
0
91
1
92
1
93
1
72
2
10
15.443200
20
3.149600
40
0.150000
50
0.000000
51
360.000000
73
1
97
0
75
0
76
0
98
1
10
0.0
20
0.0
0
CIRCLE
5
126
100
AcDbEntity
8
BOHRUNG
62
255
100
AcDbCircle
39
0.000001
10
15.443200
20
3.149600
30
0
40
0.150000
0
HATCH
5
127
100
AcDbEntity
8
BOHRUNG
62
255
100
AcDbHatch
10
0.0
20
0.0
30
0.0
210
0.0
220
0.0
230
1.0
2
SOLID
70
1
71
0
91
1
92
1
93
1
72
2
10
15.443200
20
4.902200
40
0.150000
50
0.000000
51
360.000000
73
1
97
0
75
0
76
0
98
1
10
0.0
20
0.0
0
CIRCLE
5
128
100
AcDbEntity
8
BOHRUNG
62
255
100
AcDbCircle
39
0.000001
10
15.443200
20
4.902200
30
0
40
0.150000
0
HATCH
5
129
100
AcDbEntity
8
BOHRUNG
62
255
100
AcDbHatch
10
0.0
20
0.0
30
0.0
210
0.0
220
0.0
230
1.0
2
SOLID
70
1
71
0
91
1
92
1
93
1
72
2
10
15.443200
20
1.955800
40
0.150000
50
0.000000
51
360.000000
73
1
97
0
75
0
76
0
98
1
10
0.0
20
0.0
0
CIRCLE
5
12A
100
AcDbEntity
8
BOHRUNG
62
255
100
AcDbCircle
39
0.000001
10
15.443200
20
1.955800
30
0
40
0.150000
0
HATCH
5
12B
100
AcDbEntity
8
BOHRUNG
62
255
100
AcDbHatch
10
0.0
20
0.0
30
0.0
210
0.0
220
0.0
230
1.0
2
SOLID
70
1
71
0
91
1
92
1
93
1
72
2
10
18.745200
20
-4.978400
40
0.150000
50
0.000000
51
360.000000
73
1
97
0
75
0
76
0
98
1
10
0.0
20
0.0
0
CIRCLE
5
12C
100
AcDbEntity
8
BOHRUNG
62
255
100
AcDbCircle
39
0.000001
10
18.745200
20
-4.978400
30
0
40
0.150000
0
HATCH
5
12D
100
AcDbEntity
8
BOHRUNG
62
255
100
AcDbHatch
10
0.0
20
0.0
30
0.0
210
0.0
220
0.0
230
1.0
2
SOLID
70
1
71
0
91
1
92
1
93
1
72
2
10
16.510000
20
-2.540000
40
0.150000
50
0.000000
51
360.000000
73
1
97
0
75
0
76
0
98
1
10
0.0
20
0.0
0
CIRCLE
5
12E
100
AcDbEntity
8
BOHRUNG
62
255
100
AcDbCircle
39
0.000001
10
16.510000
20
-2.540000
30
0
40
0.150000
0
HATCH
5
12F
100
AcDbEntity
8
BOHRUNG
62
255
100
AcDbHatch
10
0.0
20
0.0
30
0.0
210
0.0
220
0.0
230
1.0
2
SOLID
70
1
71
0
91
1
92
1
93
1
72
2
10
17.983200
20
-3.124200
40
0.150000
50
0.000000
51
360.000000
73
1
97
0
75
0
76
0
98
1
10
0.0
20
0.0
0
CIRCLE
5
130
100
AcDbEntity
8
BOHRUNG
62
255
100
AcDbCircle
39
0.000001
10
17.983200
20
-3.124200
30
0
40
0.150000
0
HATCH
5
131
100
AcDbEntity
8
BOHRUNG
62
255
100
AcDbHatch
10
0.0
20
0.0
30
0.0
210
0.0
220
0.0
230
1.0
2
SOLID
70
1
71
0
91
1
92
1
93
1
72
2
10
17.780000
20
-2.006600
40
0.150000
50
0.000000
51
360.000000
73
1
97
0
75
0
76
0
98
1
10
0.0
20
0.0
0
CIRCLE
5
132
100
AcDbEntity
8
BOHRUNG
62
255
100
AcDbCircle
39
0.000001
10
17.780000
20
-2.006600
30
0
40
0.150000
0
HATCH
5
133
100
AcDbEntity
8
BOHRUNG
62
255
100
AcDbHatch
10
0.0
20
0.0
30
0.0
210
0.0
220
0.0
230
1.0
2
SOLID
70
1
71
0
91
1
92
1
93
1
72
2
10
17.957800
20
4.419600
40
0.150000
50
0.000000
51
360.000000
73
1
97
0
75
0
76
0
98
1
10
0.0
20
0.0
0
CIRCLE
5
134
100
AcDbEntity
8
BOHRUNG
62
255
100
AcDbCircle
39
0.000001
10
17.957800
20
4.419600
30
0
40
0.150000
0
HATCH
5
135
100
AcDbEntity
8
BOHRUNG
62
255
100
AcDbHatch
10
0.0
20
0.0
30
0.0
210
0.0
220
0.0
230
1.0
2
SOLID
70
1
71
0
91
1
92
1
93
1
72
2
10
22.301200
20
5.257800
40
0.150000
50
0.000000
51
360.000000
73
1
97
0
75
0
76
0
98
1
10
0.0
20
0.0
0
CIRCLE
5
136
100
AcDbEntity
8
BOHRUNG
62
255
100
AcDbCircle
39
0.000001
10
22.301200
20
5.257800
30
0
40
0.150000
0
HATCH
5
137
100
AcDbEntity
8
BOHRUNG
62
255
100
AcDbHatch
10
0.0
20
0.0
30
0.0
210
0.0
220
0.0
230
1.0
2
SOLID
70
1
71
0
91
1
92
1
93
1
72
2
10
21.285200
20
3.911600
40
0.150000
50
0.000000
51
360.000000
73
1
97
0
75
0
76
0
98
1
10
0.0
20
0.0
0
CIRCLE
5
138
100
AcDbEntity
8
BOHRUNG
62
255
100
AcDbCircle
39
0.000001
10
21.285200
20
3.911600
30
0
40
0.150000
0
HATCH
5
139
100
AcDbEntity
8
BOHRUNG
62
255
100
AcDbHatch
10
0.0
20
0.0
30
0.0
210
0.0
220
0.0
230
1.0
2
SOLID
70
1
71
0
91
1
92
1
93
1
72
2
10
20.523200
20
4.978400
40
0.150000
50
0.000000
51
360.000000
73
1
97
0
75
0
76
0
98
1
10
0.0
20
0.0
0
CIRCLE
5
13A
100
AcDbEntity
8
BOHRUNG
62
255
100
AcDbCircle
39
0.000001
10
20.523200
20
4.978400
30
0
40
0.150000
0
HATCH
5
13B
100
AcDbEntity
8
BOHRUNG
62
255
100
AcDbHatch
10
0.0
20
0.0
30
0.0
210
0.0
220
0.0
230
1.0
2
SOLID
70
1
71
0
91
1
92
1
93
1
72
2
10
22.529800
20
3.835400
40
0.150000
50
0.000000
51
360.000000
73
1
97
0
75
0
76
0
98
1
10
0.0
20
0.0
0
CIRCLE
5
13C
100
AcDbEntity
8
BOHRUNG
62
255
100
AcDbCircle
39
0.000001
10
22.529800
20
3.835400
30
0
40
0.150000
0
HATCH
5
13D
100
AcDbEntity
8
BOHRUNG
62
255
100
AcDbHatch
10
0.0
20
0.0
30
0.0
210
0.0
220
0.0
230
1.0
2
SOLID
70
1
71
0
91
1
92
1
93
1
72
2
10
22.631400
20
2.667000
40
0.150000
50
0.000000
51
360.000000
73
1
97
0
75
0
76
0
98
1
10
0.0
20
0.0
0
CIRCLE
5
13E
100
AcDbEntity
8
BOHRUNG
62
255
100
AcDbCircle
39
0.000001
10
22.631400
20
2.667000
30
0
40
0.150000
0
HATCH
5
13F
100
AcDbEntity
8
BOHRUNG
62
255
100
AcDbHatch
10
0.0
20
0.0
30
0.0
210
0.0
220
0.0
230
1.0
2
SOLID
70
1
71
0
91
1
92
1
93
1
72
2
10
22.631400
20
0.457200
40
0.150000
50
0.000000
51
360.000000
73
1
97
0
75
0
76
0
98
1
10
0.0
20
0.0
0
CIRCLE
5
140
100
AcDbEntity
8
BOHRUNG
62
255
100
AcDbCircle
39
0.000001
10
22.631400
20
0.457200
30
0
40
0.150000
0
HATCH
5
141
100
AcDbEntity
8
BOHRUNG
62
255
100
AcDbHatch
10
0.0
20
0.0
30
0.0
210
0.0
220
0.0
230
1.0
2
SOLID
70
1
71
0
91
1
92
1
93
1
72
2
10
22.631400
20
1.549400
40
0.150000
50
0.000000
51
360.000000
73
1
97
0
75
0
76
0
98
1
10
0.0
20
0.0
0
CIRCLE
5
142
100
AcDbEntity
8
BOHRUNG
62
255
100
AcDbCircle
39
0.000001
10
22.631400
20
1.549400
30
0
40
0.150000
0
HATCH
5
143
100
AcDbEntity
8
BOHRUNG
62
255
100
AcDbHatch
10
0.0
20
0.0
30
0.0
210
0.0
220
0.0
230
1.0
2
SOLID
70
1
71
0
91
1
92
1
93
1
72
2
10
22.631400
20
-0.635000
40
0.150000
50
0.000000
51
360.000000
73
1
97
0
75
0
76
0
98
1
10
0.0
20
0.0
0
CIRCLE
5
144
100
AcDbEntity
8
BOHRUNG
62
255
100
AcDbCircle
39
0.000001
10
22.631400
20
-0.635000
30
0
40
0.150000
0
HATCH
5
145
100
AcDbEntity
8
BOHRUNG
62
255
100
AcDbHatch
10
0.0
20
0.0
30
0.0
210
0.0
220
0.0
230
1.0
2
SOLID
70
1
71
0
91
1
92
1
93
1
72
2
10
22.631400
20
-1.752600
40
0.150000
50
0.000000
51
360.000000
73
1
97
0
75
0
76
0
98
1
10
0.0
20
0.0
0
CIRCLE
5
146
100
AcDbEntity
8
BOHRUNG
62
255
100
AcDbCircle
39
0.000001
10
22.631400
20
-1.752600
30
0
40
0.150000
0
HATCH
5
147
100
AcDbEntity
8
BOHRUNG
62
255
100
AcDbHatch
10
0.0
20
0.0
30
0.0
210
0.0
220
0.0
230
1.0
2
SOLID
70
1
71
0
91
1
92
1
93
1
72
2
10
22.631400
20
-2.844800
40
0.150000
50
0.000000
51
360.000000
73
1
97
0
75
0
76
0
98
1
10
0.0
20
0.0
0
CIRCLE
5
148
100
AcDbEntity
8
BOHRUNG
62
255
100
AcDbCircle
39
0.000001
10
22.631400
20
-2.844800
30
0
40
0.150000
0
HATCH
5
149
100
AcDbEntity
8
BOHRUNG
62
255
100
AcDbHatch
10
0.0
20
0.0
30
0.0
210
0.0
220
0.0
230
1.0
2
SOLID
70
1
71
0
91
1
92
1
93
1
72
2
10
22.631400
20
-3.962400
40
0.150000
50
0.000000
51
360.000000
73
1
97
0
75
0
76
0
98
1
10
0.0
20
0.0
0
CIRCLE
5
14A
100
AcDbEntity
8
BOHRUNG
62
255
100
AcDbCircle
39
0.000001
10
22.631400
20
-3.962400
30
0
40
0.150000
0
HATCH
5
14B
100
AcDbEntity
8
BOHRUNG
62
255
100
AcDbHatch
10
0.0
20
0.0
30
0.0
210
0.0
220
0.0
230
1.0
2
SOLID
70
1
71
0
91
1
92
1
93
1
72
2
10
22.682200
20
-4.648200
40
0.150000
50
0.000000
51
360.000000
73
1
97
0
75
0
76
0
98
1
10
0.0
20
0.0
0
CIRCLE
5
14C
100
AcDbEntity
8
BOHRUNG
62
255
100
AcDbCircle
39
0.000001
10
22.682200
20
-4.648200
30
0
40
0.150000
0
HATCH
5
14D
100
AcDbEntity
8
BOHRUNG
62
255
100
AcDbHatch
10
0.0
20
0.0
30
0.0
210
0.0
220
0.0
230
1.0
2
SOLID
70
1
71
0
91
1
92
1
93
1
72
2
10
24.180800
20
-5.969000
40
0.150000
50
0.000000
51
360.000000
73
1
97
0
75
0
76
0
98
1
10
0.0
20
0.0
0
CIRCLE
5
14E
100
AcDbEntity
8
BOHRUNG
62
255
100
AcDbCircle
39
0.000001
10
24.180800
20
-5.969000
30
0
40
0.150000
0
HATCH
5
14F
100
AcDbEntity
8
BOHRUNG
62
255
100
AcDbHatch
10
0.0
20
0.0
30
0.0
210
0.0
220
0.0
230
1.0
2
SOLID
70
1
71
0
91
1
92
1
93
1
72
2
10
25.882600
20
-4.648200
40
0.150000
50
0.000000
51
360.000000
73
1
97
0
75
0
76
0
98
1
10
0.0
20
0.0
0
CIRCLE
5
150
100
AcDbEntity
8
BOHRUNG
62
255
100
AcDbCircle
39
0.000001
10
25.882600
20
-4.648200
30
0
40
0.150000
0
HATCH
5
151
100
AcDbEntity
8
BOHRUNG
62
255
100
AcDbHatch
10
0.0
20
0.0
30
0.0
210
0.0
220
0.0
230
1.0
2
SOLID
70
1
71
0
91
1
92
1
93
1
72
2
10
25.882600
20
-2.844800
40
0.150000
50
0.000000
51
360.000000
73
1
97
0
75
0
76
0
98
1
10
0.0
20
0.0
0
CIRCLE
5
152
100
AcDbEntity
8
BOHRUNG
62
255
100
AcDbCircle
39
0.000001
10
25.882600
20
-2.844800
30
0
40
0.150000
0
HATCH
5
153
100
AcDbEntity
8
BOHRUNG
62
255
100
AcDbHatch
10
0.0
20
0.0
30
0.0
210
0.0
220
0.0
230
1.0
2
SOLID
70
1
71
0
91
1
92
1
93
1
72
2
10
25.882600
20
-0.635000
40
0.150000
50
0.000000
51
360.000000
73
1
97
0
75
0
76
0
98
1
10
0.0
20
0.0
0
CIRCLE
5
154
100
AcDbEntity
8
BOHRUNG
62
255
100
AcDbCircle
39
0.000001
10
25.882600
20
-0.635000
30
0
40
0.150000
0
HATCH
5
155
100
AcDbEntity
8
BOHRUNG
62
255
100
AcDbHatch
10
0.0
20
0.0
30
0.0
210
0.0
220
0.0
230
1.0
2
SOLID
70
1
71
0
91
1
92
1
93
1
72
2
10
25.882600
20
1.574800
40
0.150000
50
0.000000
51
360.000000
73
1
97
0
75
0
76
0
98
1
10
0.0
20
0.0
0
CIRCLE
5
156
100
AcDbEntity
8
BOHRUNG
62
255
100
AcDbCircle
39
0.000001
10
25.882600
20
1.574800
30
0
40
0.150000
0
HATCH
5
157
100
AcDbEntity
8
BOHRUNG
62
255
100
AcDbHatch
10
0.0
20
0.0
30
0.0
210
0.0
220
0.0
230
1.0
2
SOLID
70
1
71
0
91
1
92
1
93
1
72
2
10
25.882600
20
3.810000
40
0.150000
50
0.000000
51
360.000000
73
1
97
0
75
0
76
0
98
1
10
0.0
20
0.0
0
CIRCLE
5
158
100
AcDbEntity
8
BOHRUNG
62
255
100
AcDbCircle
39
0.000001
10
25.882600
20
3.810000
30
0
40
0.150000
0
HATCH
5
159
100
AcDbEntity
8
BOHRUNG
62
255
100
AcDbHatch
10
0.0
20
0.0
30
0.0
210
0.0
220
0.0
230
1.0
2
SOLID
70
1
71
0
91
1
92
1
93
1
72
2
10
24.561800
20
4.216400
40
0.150000
50
0.000000
51
360.000000
73
1
97
0
75
0
76
0
98
1
10
0.0
20
0.0
0
CIRCLE
5
15A
100
AcDbEntity
8
BOHRUNG
62
255
100
AcDbCircle
39
0.000001
10
24.561800
20
4.216400
30
0
40
0.150000
0
HATCH
5
15B
100
AcDbEntity
8
BOHRUNG
62
255
100
AcDbHatch
10
0.0
20
0.0
30
0.0
210
0.0
220
0.0
230
1.0
2
SOLID
70
1
71
0
91
1
92
1
93
1
72
2
10
20.116800
20
-4.470400
40
0.150000
50
0.000000
51
360.000000
73
1
97
0
75
0
76
0
98
1
10
0.0
20
0.0
0
CIRCLE
5
15C
100
AcDbEntity
8
BOHRUNG
62
255
100
AcDbCircle
39
0.000001
10
20.116800
20
-4.470400
30
0
40
0.150000
0
HATCH
5
15D
100
AcDbEntity
8
BOHRUNG
62
255
100
AcDbHatch
10
0.0
20
0.0
30
0.0
210
0.0
220
0.0
230
1.0
2
SOLID
70
1
71
0
91
1
92
1
93
1
72
2
10
20.955000
20
-5.969000
40
0.150000
50
0.000000
51
360.000000
73
1
97
0
75
0
76
0
98
1
10
0.0
20
0.0
0
CIRCLE
5
15E
100
AcDbEntity
8
BOHRUNG
62
255
100
AcDbCircle
39
0.000001
10
20.955000
20
-5.969000
30
0
40
0.150000
0
HATCH
5
15F
100
AcDbEntity
8
BOHRUNG
62
255
100
AcDbHatch
10
0.0
20
0.0
30
0.0
210
0.0
220
0.0
230
1.0
2
SOLID
70
1
71
0
91
1
92
1
93
1
72
2
10
21.945600
20
-5.181600
40
0.150000
50
0.000000
51
360.000000
73
1
97
0
75
0
76
0
98
1
10
0.0
20
0.0
0
CIRCLE
5
160
100
AcDbEntity
8
BOHRUNG
62
255
100
AcDbCircle
39
0.000001
10
21.945600
20
-5.181600
30
0
40
0.150000
0
HATCH
5
161
100
AcDbEntity
8
BOHRUNG
62
255
100
AcDbHatch
10
0.0
20
0.0
30
0.0
210
0.0
220
0.0
230
1.0
2
SOLID
70
1
71
0
91
1
92
1
93
1
72
2
10
21.082000
20
-5.054600
40
0.150000
50
0.000000
51
360.000000
73
1
97
0
75
0
76
0
98
1
10
0.0
20
0.0
0
CIRCLE
5
162
100
AcDbEntity
8
BOHRUNG
62
255
100
AcDbCircle
39
0.000001
10
21.082000
20
-5.054600
30
0
40
0.150000
0
HATCH
5
163
100
AcDbEntity
8
BOHRUNG
62
255
100
AcDbHatch
10
0.0
20
0.0
30
0.0
210
0.0
220
0.0
230
1.0
2
SOLID
70
1
71
0
91
1
92
1
93
1
72
2
10
21.005800
20
-2.616200
40
0.150000
50
0.000000
51
360.000000
73
1
97
0
75
0
76
0
98
1
10
0.0
20
0.0
0
CIRCLE
5
164
100
AcDbEntity
8
BOHRUNG
62
255
100
AcDbCircle
39
0.000001
10
21.005800
20
-2.616200
30
0
40
0.150000
0
HATCH
5
165
100
AcDbEntity
8
BOHRUNG
62
255
100
AcDbHatch
10
0.0
20
0.0
30
0.0
210
0.0
220
0.0
230
1.0
2
SOLID
70
1
71
0
91
1
92
1
93
1
72
2
10
20.116800
20
-1.981200
40
0.150000
50
0.000000
51
360.000000
73
1
97
0
75
0
76
0
98
1
10
0.0
20
0.0
0
CIRCLE
5
166
100
AcDbEntity
8
BOHRUNG
62
255
100
AcDbCircle
39
0.000001
10
20.116800
20
-1.981200
30
0
40
0.150000
0
HATCH
5
167
100
AcDbEntity
8
BOHRUNG
62
255
100
AcDbHatch
10
0.0
20
0.0
30
0.0
210
0.0
220
0.0
230
1.0
2
SOLID
70
1
71
0
91
1
92
1
93
1
72
2
10
20.218400
20
-1.041400
40
0.150000
50
0.000000
51
360.000000
73
1
97
0
75
0
76
0
98
1
10
0.0
20
0.0
0
CIRCLE
5
168
100
AcDbEntity
8
BOHRUNG
62
255
100
AcDbCircle
39
0.000001
10
20.218400
20
-1.041400
30
0
40
0.150000
0
HATCH
5
169
100
AcDbEntity
8
BOHRUNG
62
255
100
AcDbHatch
10
0.0
20
0.0
30
0.0
210
0.0
220
0.0
230
1.0
2
SOLID
70
1
71
0
91
1
92
1
93
1
72
2
10
21.056600
20
-1.752600
40
0.150000
50
0.000000
51
360.000000
73
1
97
0
75
0
76
0
98
1
10
0.0
20
0.0
0
CIRCLE
5
16A
100
AcDbEntity
8
BOHRUNG
62
255
100
AcDbCircle
39
0.000001
10
21.056600
20
-1.752600
30
0
40
0.150000
0
HATCH
5
16B
100
AcDbEntity
8
BOHRUNG
62
255
100
AcDbHatch
10
0.0
20
0.0
30
0.0
210
0.0
220
0.0
230
1.0
2
SOLID
70
1
71
0
91
1
92
1
93
1
72
2
10
15.443200
20
-3.175000
40
0.150000
50
0.000000
51
360.000000
73
1
97
0
75
0
76
0
98
1
10
0.0
20
0.0
0
CIRCLE
5
16C
100
AcDbEntity
8
BOHRUNG
62
255
100
AcDbCircle
39
0.000001
10
15.443200
20
-3.175000
30
0
40
0.150000
0
HATCH
5
16D
100
AcDbEntity
8
BOHRUNG
62
255
100
AcDbHatch
10
0.0
20
0.0
30
0.0
210
0.0
220
0.0
230
1.0
2
SOLID
70
1
71
0
91
1
92
1
93
1
72
2
10
15.417800
20
-1.879600
40
0.150000
50
0.000000
51
360.000000
73
1
97
0
75
0
76
0
98
1
10
0.0
20
0.0
0
CIRCLE
5
16E
100
AcDbEntity
8
BOHRUNG
62
255
100
AcDbCircle
39
0.000001
10
15.417800
20
-1.879600
30
0
40
0.150000
0
HATCH
5
16F
100
AcDbEntity
8
BOHRUNG
62
255
100
AcDbHatch
10
0.0
20
0.0
30
0.0
210
0.0
220
0.0
230
1.0
2
SOLID
70
1
71
0
91
1
92
1
93
1
72
2
10
17.602200
20
-4.419600
40
0.150000
50
0.000000
51
360.000000
73
1
97
0
75
0
76
0
98
1
10
0.0
20
0.0
0
CIRCLE
5
170
100
AcDbEntity
8
BOHRUNG
62
255
100
AcDbCircle
39
0.000001
10
17.602200
20
-4.419600
30
0
40
0.150000
0
HATCH
5
171
100
AcDbEntity
8
BOHRUNG
62
255
100
AcDbHatch
10
0.0
20
0.0
30
0.0
210
0.0
220
0.0
230
1.0
2
SOLID
70
1
71
0
91
1
92
1
93
1
72
2
10
17.881600
20
-1.270000
40
0.150000
50
0.000000
51
360.000000
73
1
97
0
75
0
76
0
98
1
10
0.0
20
0.0
0
CIRCLE
5
172
100
AcDbEntity
8
BOHRUNG
62
255
100
AcDbCircle
39
0.000001
10
17.881600
20
-1.270000
30
0
40
0.150000
0
HATCH
5
173
100
AcDbEntity
8
BOHRUNG
62
255
100
AcDbHatch
10
0.0
20
0.0
30
0.0
210
0.0
220
0.0
230
1.0
2
SOLID
70
1
71
0
91
1
92
1
93
1
72
2
10
17.780000
20
1.346200
40
0.150000
50
0.000000
51
360.000000
73
1
97
0
75
0
76
0
98
1
10
0.0
20
0.0
0
CIRCLE
5
174
100
AcDbEntity
8
BOHRUNG
62
255
100
AcDbCircle
39
0.000001
10
17.780000
20
1.346200
30
0
40
0.150000
0
HATCH
5
175
100
AcDbEntity
8
BOHRUNG
62
255
100
AcDbHatch
10
0.0
20
0.0
30
0.0
210
0.0
220
0.0
230
1.0
2
SOLID
70
1
71
0
91
1
92
1
93
1
72
2
10
17.653000
20
3.860800
40
0.150000
50
0.000000
51
360.000000
73
1
97
0
75
0
76
0
98
1
10
0.0
20
0.0
0
CIRCLE
5
176
100
AcDbEntity
8
BOHRUNG
62
255
100
AcDbCircle
39
0.000001
10
17.653000
20
3.860800
30
0
40
0.150000
0
HATCH
5
177
100
AcDbEntity
8
BOHRUNG
62
255
100
AcDbHatch
10
0.0
20
0.0
30
0.0
210
0.0
220
0.0
230
1.0
2
SOLID
70
1
71
0
91
1
92
1
93
1
72
2
10
16.510000
20
-3.810000
40
0.500000
50
0.000000
51
360.000000
73
1
97
0
75
0
76
0
98
1
10
0.0
20
0.0
0
CIRCLE
5
178
100
AcDbEntity
8
BOHRUNG
62
255
100
AcDbCircle
39
0.000001
10
16.510000
20
-3.810000
30
0
40
0.500000
0
HATCH
5
179
100
AcDbEntity
8
BOHRUNG
62
255
100
AcDbHatch
10
0.0
20
0.0
30
0.0
210
0.0
220
0.0
230
1.0
2
SOLID
70
1
71
0
91
1
92
1
93
1
72
2
10
19.050000
20
-3.810000
40
0.500000
50
0.000000
51
360.000000
73
1
97
0
75
0
76
0
98
1
10
0.0
20
0.0
0
CIRCLE
5
17A
100
AcDbEntity
8
BOHRUNG
62
255
100
AcDbCircle
39
0.000001
10
19.050000
20
-3.810000
30
0
40
0.500000
0
HATCH
5
17B
100
AcDbEntity
8
BOHRUNG
62
255
100
AcDbHatch
10
0.0
20
0.0
30
0.0
210
0.0
220
0.0
230
1.0
2
SOLID
70
1
71
0
91
1
92
1
93
1
72
2
10
16.510000
20
-1.270000
40
0.500000
50
0.000000
51
360.000000
73
1
97
0
75
0
76
0
98
1
10
0.0
20
0.0
0
CIRCLE
5
17C
100
AcDbEntity
8
BOHRUNG
62
255
100
AcDbCircle
39
0.000001
10
16.510000
20
-1.270000
30
0
40
0.500000
0
HATCH
5
17D
100
AcDbEntity
8
BOHRUNG
62
255
100
AcDbHatch
10
0.0
20
0.0
30
0.0
210
0.0
220
0.0
230
1.0
2
SOLID
70
1
71
0
91
1
92
1
93
1
72
2
10
19.050000
20
-1.270000
40
0.500000
50
0.000000
51
360.000000
73
1
97
0
75
0
76
0
98
1
10
0.0
20
0.0
0
CIRCLE
5
17E
100
AcDbEntity
8
BOHRUNG
62
255
100
AcDbCircle
39
0.000001
10
19.050000
20
-1.270000
30
0
40
0.500000
0
HATCH
5
17F
100
AcDbEntity
8
BOHRUNG
62
255
100
AcDbHatch
10
0.0
20
0.0
30
0.0
210
0.0
220
0.0
230
1.0
2
SOLID
70
1
71
0
91
1
92
1
93
1
72
2
10
16.510000
20
1.270000
40
0.500000
50
0.000000
51
360.000000
73
1
97
0
75
0
76
0
98
1
10
0.0
20
0.0
0
CIRCLE
5
180
100
AcDbEntity
8
BOHRUNG
62
255
100
AcDbCircle
39
0.000001
10
16.510000
20
1.270000
30
0
40
0.500000
0
HATCH
5
181
100
AcDbEntity
8
BOHRUNG
62
255
100
AcDbHatch
10
0.0
20
0.0
30
0.0
210
0.0
220
0.0
230
1.0
2
SOLID
70
1
71
0
91
1
92
1
93
1
72
2
10
19.050000
20
1.270000
40
0.500000
50
0.000000
51
360.000000
73
1
97
0
75
0
76
0
98
1
10
0.0
20
0.0
0
CIRCLE
5
182
100
AcDbEntity
8
BOHRUNG
62
255
100
AcDbCircle
39
0.000001
10
19.050000
20
1.270000
30
0
40
0.500000
0
HATCH
5
183
100
AcDbEntity
8
BOHRUNG
62
255
100
AcDbHatch
10
0.0
20
0.0
30
0.0
210
0.0
220
0.0
230
1.0
2
SOLID
70
1
71
0
91
1
92
1
93
1
72
2
10
16.510000
20
3.810000
40
0.500000
50
0.000000
51
360.000000
73
1
97
0
75
0
76
0
98
1
10
0.0
20
0.0
0
CIRCLE
5
184
100
AcDbEntity
8
BOHRUNG
62
255
100
AcDbCircle
39
0.000001
10
16.510000
20
3.810000
30
0
40
0.500000
0
HATCH
5
185
100
AcDbEntity
8
BOHRUNG
62
255
100
AcDbHatch
10
0.0
20
0.0
30
0.0
210
0.0
220
0.0
230
1.0
2
SOLID
70
1
71
0
91
1
92
1
93
1
72
2
10
19.050000
20
3.810000
40
0.500000
50
0.000000
51
360.000000
73
1
97
0
75
0
76
0
98
1
10
0.0
20
0.0
0
CIRCLE
5
186
100
AcDbEntity
8
BOHRUNG
62
255
100
AcDbCircle
39
0.000001
10
19.050000
20
3.810000
30
0
40
0.500000
0
ENDSEC
0
SECTION
2
OBJECTS
0
DICTIONARY
5
187
100
AcDbDictionary
3
ACAD_GROUP
350
188
3
ACAD_LAYOUT
350
189
3
ACAD_MLINESTYLE
350
18A
0
DICTIONARY
5
188
100
AcDbDictionary
0
DICTIONARY
5
189
100
AcDbDictionary
0
DICTIONARY
5
18A
100
AcDbDictionary
3
STANDARD
350
18B
0
MLINESTYLE
5
18B
100
AcDbMlineStyle
2
Standard
70
0
3

62
256
51
90.0
52
90.0
71
2
49
0.5
62
256
6
BYLAYER
49
-0.5
62
256
6
BYLAYER
0
ENDSEC
0
EOF
