G04 Generated by Ultiboard 14.3 *
%FSLAX34Y34*%
%MOMM*%

%ADD10C,0.0001*%
%ADD11C,0.0889*%
%ADD12C,0.1556*%


G04 ColorRGB FF14FF for the following layer *
%LNsilkscreen bottom*%
%LPD*%
G54D10*
G54D11*
X67431Y-47786D02*
X65156Y-47786D01*
X64018Y-46643D01*
X64018Y-43214D01*
X65156Y-42071D01*
X67431Y-42071D01*
X66862Y-42071D02*
X66862Y-47786D01*
X62311Y-47786D02*
X62311Y-44357D01*
X61173Y-42071D01*
X60036Y-42071D01*
X58898Y-44357D01*
X58898Y-47786D01*
X62311Y-46071D02*
X58898Y-46071D01*
X55484Y-47786D02*
X55484Y-42071D01*
X57191Y-42071D02*
X53778Y-42071D01*
X51502Y-43214D02*
X50364Y-42071D01*
X50364Y-47786D01*
X52071Y-47786D02*
X48658Y-47786D01*
X67411Y-36786D02*
X65136Y-36786D01*
X63998Y-35643D01*
X63998Y-32214D01*
X65136Y-31071D01*
X67411Y-31071D01*
X66842Y-31071D02*
X66842Y-36786D01*
X62291Y-36786D02*
X62291Y-33357D01*
X61153Y-31071D01*
X60016Y-31071D01*
X58878Y-33357D01*
X58878Y-36786D01*
X62291Y-35071D02*
X58878Y-35071D01*
X55464Y-36786D02*
X55464Y-31071D01*
X57171Y-31071D02*
X53758Y-31071D01*
X52051Y-32214D02*
X50913Y-31071D01*
X49776Y-31071D01*
X48638Y-32214D01*
X48638Y-35643D01*
X49776Y-36786D01*
X50913Y-36786D01*
X52051Y-35643D01*
X52051Y-32214D01*
X48638Y-32214D02*
X52051Y-35643D01*
X62291Y-20071D02*
X60584Y-25786D01*
X58878Y-20071D01*
X57171Y-24643D02*
X56033Y-25786D01*
X54896Y-25786D01*
X53758Y-24643D01*
X57171Y-21214D01*
X56033Y-20071D01*
X54896Y-20071D01*
X53758Y-21214D01*
X52051Y-24643D02*
X50913Y-25786D01*
X49776Y-25786D01*
X48638Y-24643D01*
X52051Y-21214D01*
X50913Y-20071D01*
X49776Y-20071D01*
X48638Y-21214D01*
X58878Y-13643D02*
X60016Y-14786D01*
X61153Y-14786D01*
X62291Y-13643D01*
X62291Y-10214D01*
X61153Y-9071D01*
X60016Y-9071D01*
X58878Y-10214D01*
X57171Y-9071D02*
X57171Y-14786D01*
X53758Y-14786D01*
X52051Y-14786D02*
X52051Y-9071D01*
X52051Y-11929D02*
X51482Y-11929D01*
X48638Y-9071D01*
X51482Y-11929D02*
X48638Y-14786D01*
X62291Y1929D02*
X60584Y-3786D01*
X58878Y1929D01*
X57171Y-3786D02*
X54896Y-3786D01*
X53758Y-2643D01*
X53758Y786D01*
X54896Y1929D01*
X57171Y1929D01*
X56602Y1929D02*
X56602Y-3786D01*
X52051Y-3786D02*
X49776Y-3786D01*
X48638Y-2643D01*
X48638Y786D01*
X49776Y1929D01*
X52051Y1929D01*
X51482Y1929D02*
X51482Y-3786D01*
X58878Y8357D02*
X60016Y7214D01*
X61153Y7214D01*
X62291Y8357D01*
X62291Y11786D01*
X61153Y12929D01*
X60016Y12929D01*
X58878Y11786D01*
X57171Y7214D02*
X57171Y12929D01*
X55464Y10071D01*
X53758Y12929D01*
X53758Y7214D01*
X52051Y7214D02*
X49776Y7214D01*
X48638Y8357D01*
X48638Y11786D01*
X49776Y12929D01*
X52051Y12929D01*
X51482Y12929D02*
X51482Y7214D01*
X67411Y18214D02*
X65136Y18214D01*
X63998Y19357D01*
X63998Y22786D01*
X65136Y23929D01*
X67411Y23929D01*
X66842Y23929D02*
X66842Y18214D01*
X62291Y18214D02*
X62291Y21643D01*
X61153Y23929D01*
X60016Y23929D01*
X58878Y21643D01*
X58878Y18214D01*
X62291Y19929D02*
X58878Y19929D01*
X55464Y18214D02*
X55464Y23929D01*
X57171Y23929D02*
X53758Y23929D01*
X51482Y23357D02*
X50913Y23929D01*
X49776Y23929D01*
X48638Y22786D01*
X48638Y21643D01*
X49207Y21071D01*
X48638Y20500D01*
X48638Y19357D01*
X49776Y18214D01*
X50913Y18214D01*
X51482Y18786D01*
X50913Y21071D02*
X49207Y21071D01*
X67411Y29214D02*
X65136Y29214D01*
X63998Y30357D01*
X63998Y33786D01*
X65136Y34929D01*
X67411Y34929D01*
X66842Y34929D02*
X66842Y29214D01*
X62291Y29214D02*
X62291Y32643D01*
X61153Y34929D01*
X60016Y34929D01*
X58878Y32643D01*
X58878Y29214D01*
X62291Y30929D02*
X58878Y30929D01*
X55464Y29214D02*
X55464Y34929D01*
X57171Y34929D02*
X53758Y34929D01*
X52051Y33786D02*
X50913Y34929D01*
X49776Y34929D01*
X48638Y33786D01*
X48638Y33214D01*
X52051Y29214D01*
X48638Y29214D01*
X48638Y29786D01*
G54D12*
X148864Y-42750D02*
X144882Y-42750D01*
X142891Y-40750D01*
X142891Y-34750D01*
X144882Y-32750D01*
X148864Y-32750D01*
X147869Y-32750D02*
X147869Y-42750D01*
X139904Y-42750D02*
X139904Y-36750D01*
X137913Y-32750D01*
X135922Y-32750D01*
X133931Y-36750D01*
X133931Y-42750D01*
X139904Y-39750D02*
X133931Y-39750D01*
X127958Y-42750D02*
X127958Y-32750D01*
X130944Y-32750D02*
X124971Y-32750D01*
X121984Y-34750D02*
X119993Y-32750D01*
X118002Y-32750D01*
X116011Y-34750D01*
X116011Y-40750D01*
X118002Y-42750D01*
X119993Y-42750D01*
X121984Y-40750D01*
X121984Y-34750D01*
X116011Y-34750D02*
X121984Y-40750D01*
X240304Y-42750D02*
X236322Y-42750D01*
X234331Y-40750D01*
X234331Y-34750D01*
X236322Y-32750D01*
X240304Y-32750D01*
X239309Y-32750D02*
X239309Y-42750D01*
X231344Y-42750D02*
X231344Y-36750D01*
X229353Y-32750D01*
X227362Y-32750D01*
X225371Y-36750D01*
X225371Y-42750D01*
X231344Y-39750D02*
X225371Y-39750D01*
X219398Y-42750D02*
X219398Y-32750D01*
X222384Y-32750D02*
X216411Y-32750D01*
X212429Y-34750D02*
X210438Y-32750D01*
X210438Y-42750D01*
X213424Y-42750D02*
X207451Y-42750D01*
X142891Y-15350D02*
X144882Y-17350D01*
X146873Y-17350D01*
X148864Y-15350D01*
X148864Y-9350D01*
X146873Y-7350D01*
X144882Y-7350D01*
X142891Y-9350D01*
X139904Y-7350D02*
X139904Y-17350D01*
X133931Y-17350D01*
X130944Y-17350D02*
X130944Y-7350D01*
X130944Y-12350D02*
X129949Y-12350D01*
X124971Y-7350D01*
X129949Y-12350D02*
X124971Y-17350D01*
X231414Y-7350D02*
X228428Y-17350D01*
X225441Y-7350D01*
X222454Y-15350D02*
X220463Y-17350D01*
X218472Y-17350D01*
X216481Y-15350D01*
X222454Y-9350D01*
X220463Y-7350D01*
X218472Y-7350D01*
X216481Y-9350D01*
X213494Y-15350D02*
X211503Y-17350D01*
X209512Y-17350D01*
X207521Y-15350D01*
X213494Y-9350D01*
X211503Y-7350D01*
X209512Y-7350D01*
X207521Y-9350D01*
X142891Y10050D02*
X144882Y8050D01*
X146873Y8050D01*
X148864Y10050D01*
X148864Y16050D01*
X146873Y18050D01*
X144882Y18050D01*
X142891Y16050D01*
X139904Y8050D02*
X139904Y18050D01*
X136918Y13050D01*
X133931Y18050D01*
X133931Y8050D01*
X130944Y8050D02*
X126962Y8050D01*
X124971Y10050D01*
X124971Y16050D01*
X126962Y18050D01*
X130944Y18050D01*
X129949Y18050D02*
X129949Y8050D01*
X231414Y18050D02*
X228428Y8050D01*
X225441Y18050D01*
X222454Y8050D02*
X218472Y8050D01*
X216481Y10050D01*
X216481Y16050D01*
X218472Y18050D01*
X222454Y18050D01*
X221459Y18050D02*
X221459Y8050D01*
X213494Y8050D02*
X209512Y8050D01*
X207521Y10050D01*
X207521Y16050D01*
X209512Y18050D01*
X213494Y18050D01*
X212499Y18050D02*
X212499Y8050D01*
X148864Y33450D02*
X144882Y33450D01*
X142891Y35450D01*
X142891Y41450D01*
X144882Y43450D01*
X148864Y43450D01*
X147869Y43450D02*
X147869Y33450D01*
X139904Y33450D02*
X139904Y39450D01*
X137913Y43450D01*
X135922Y43450D01*
X133931Y39450D01*
X133931Y33450D01*
X139904Y36450D02*
X133931Y36450D01*
X127958Y33450D02*
X127958Y43450D01*
X130944Y43450D02*
X124971Y43450D01*
X121984Y41450D02*
X119993Y43450D01*
X118002Y43450D01*
X116011Y41450D01*
X116011Y40450D01*
X121984Y33450D01*
X116011Y33450D01*
X116011Y34450D01*
X240304Y33450D02*
X236322Y33450D01*
X234331Y35450D01*
X234331Y41450D01*
X236322Y43450D01*
X240304Y43450D01*
X239309Y43450D02*
X239309Y33450D01*
X231344Y33450D02*
X231344Y39450D01*
X229353Y43450D01*
X227362Y43450D01*
X225371Y39450D01*
X225371Y33450D01*
X231344Y36450D02*
X225371Y36450D01*
X219398Y33450D02*
X219398Y43450D01*
X222384Y43450D02*
X216411Y43450D01*
X212429Y42450D02*
X211433Y43450D01*
X209442Y43450D01*
X207451Y41450D01*
X207451Y39450D01*
X208447Y38450D01*
X207451Y37450D01*
X207451Y35450D01*
X209442Y33450D01*
X211433Y33450D01*
X212429Y34450D01*
X211433Y38450D02*
X208447Y38450D01*

M02*
