G04 Generated by Ultiboard 14.3 *
%FSLAX34Y34*%
%MOMM*%

%ADD10C,0.0001*%
%ADD11C,0.0010*%
%ADD12C,1.00000*%
%ADD13R,2.9000X0.8000*%
%ADD14R,3.2000X0.8000*%


G04 ColorRGB 9900CC for the following layer *
%LNsoldermask bottom*%
%LPD*%
G54D10*
G54D11*
G36*
X157100Y-41100D02*
X157100Y-35100D01*
X173100Y-35100D01*
X173100Y-41100D01*
X157100Y-41100D01*
G37*
G36*
X162100Y-46100D02*
X162100Y-30100D01*
X168100Y-30100D01*
X168100Y-46100D01*
X162100Y-46100D01*
G37*
G36*
X182500Y-41100D02*
X182500Y-35100D01*
X198500Y-35100D01*
X198500Y-41100D01*
X182500Y-41100D01*
G37*
G36*
X187500Y-46100D02*
X187500Y-30100D01*
X193500Y-30100D01*
X193500Y-46100D01*
X187500Y-46100D01*
G37*
G36*
X157100Y-15700D02*
X157100Y-9700D01*
X173100Y-9700D01*
X173100Y-15700D01*
X157100Y-15700D01*
G37*
G36*
X162100Y-20700D02*
X162100Y-4700D01*
X168100Y-4700D01*
X168100Y-20700D01*
X162100Y-20700D01*
G37*
G36*
X182500Y-15700D02*
X182500Y-9700D01*
X198500Y-9700D01*
X198500Y-15700D01*
X182500Y-15700D01*
G37*
G36*
X187500Y-20700D02*
X187500Y-4700D01*
X193500Y-4700D01*
X193500Y-20700D01*
X187500Y-20700D01*
G37*
G36*
X157100Y9700D02*
X157100Y15700D01*
X173100Y15700D01*
X173100Y9700D01*
X157100Y9700D01*
G37*
G36*
X162100Y4700D02*
X162100Y20700D01*
X168100Y20700D01*
X168100Y4700D01*
X162100Y4700D01*
G37*
G36*
X182500Y9700D02*
X182500Y15700D01*
X198500Y15700D01*
X198500Y9700D01*
X182500Y9700D01*
G37*
G36*
X187500Y4700D02*
X187500Y20700D01*
X193500Y20700D01*
X193500Y4700D01*
X187500Y4700D01*
G37*
G36*
X157100Y35100D02*
X157100Y41100D01*
X173100Y41100D01*
X173100Y35100D01*
X157100Y35100D01*
G37*
G36*
X162100Y30100D02*
X162100Y46100D01*
X168100Y46100D01*
X168100Y30100D01*
X162100Y30100D01*
G37*
G36*
X182500Y35100D02*
X182500Y41100D01*
X198500Y41100D01*
X198500Y35100D01*
X182500Y35100D01*
G37*
G36*
X187500Y30100D02*
X187500Y46100D01*
X193500Y46100D01*
X193500Y30100D01*
X187500Y30100D01*
G37*
G54D12*
X162100Y-35100D03*
X168100Y-35100D03*
X162100Y-41100D03*
X168100Y-41100D03*
X187500Y-35100D03*
X193500Y-35100D03*
X187500Y-41100D03*
X193500Y-41100D03*
X162100Y-9700D03*
X168100Y-9700D03*
X162100Y-15700D03*
X168100Y-15700D03*
X187500Y-9700D03*
X193500Y-9700D03*
X187500Y-15700D03*
X193500Y-15700D03*
X162100Y15700D03*
X168100Y15700D03*
X162100Y9700D03*
X168100Y9700D03*
X187500Y15700D03*
X193500Y15700D03*
X187500Y9700D03*
X193500Y9700D03*
X162100Y41100D03*
X168100Y41100D03*
X162100Y35100D03*
X168100Y35100D03*
X187500Y41100D03*
X193500Y41100D03*
X187500Y35100D03*
X193500Y35100D03*
G54D13*
X29500Y-45000D03*
X29500Y-34000D03*
X29500Y-12000D03*
X29500Y10000D03*
X29500Y21000D03*
X29500Y32000D03*
G54D14*
X28000Y-23000D03*
X28000Y-1000D03*

M02*
